<?xml version="1.0" encoding="utf-8"?>
<svg version="1.1" width="640" height="640" viewBox="0 0 640 640" xmlns="http://www.w3.org/2000/svg">
  <desc>Created with Fabric.js 4.6.0</desc>
  <defs>
    <linearGradient gradientUnits="userSpaceOnUse" x1="459.408" y1="114.402" x2="459.408" y2="181.503" id="gradient-2" gradientTransform="matrix(0.860361, -0.509688, 0.570805, 0.963544, -12.932996, 240.120453)">
      <stop offset="0" style=""/>
      <stop offset="1" style=""/>
    </linearGradient>
    <linearGradient gradientUnits="userSpaceOnUse" x1="456.17" y1="93.776" x2="456.17" y2="164.068" id="gradient-3" gradientTransform="matrix(0.999494, -0.031936, 0.048573, 1.520275, -17.514817, -27.791855)">
      <stop offset="0" style=""/>
      <stop offset="1" style="stop-color: rgb(111, 255, 0);"/>
    </linearGradient>
    <linearGradient gradientUnits="userSpaceOnUse" x1="0" y1="-34.231" x2="0" y2="34.231" id="gradient-4" gradientTransform="matrix(0.024301, -0.999712, 0.484295, 0.011773, -19.266171, -13.217582)">
      <stop offset="0" style="stop-color: rgb(162, 255, 143);"/>
      <stop offset="1" style="stop-color: rgb(224, 169, 92);"/>
    </linearGradient>
    <radialGradient gradientUnits="userSpaceOnUse" cx="0" cy="0" r="4.412" id="gradient-5">
      <stop offset="0" style="stop-color: rgb(23, 55, 0);"/>
      <stop offset="1" style=""/>
    </radialGradient>
    <radialGradient gradientUnits="userSpaceOnUse" cx="0" cy="0" r="4.412" id="gradient-6">
      <stop offset="0" style="stop-color: rgb(23, 55, 0);"/>
      <stop offset="1" style=""/>
    </radialGradient>
    <radialGradient gradientUnits="userSpaceOnUse" cx="0" cy="0" r="4.412" id="gradient-7">
      <stop offset="0" style="stop-color: rgb(23, 55, 0);"/>
      <stop offset="1" style=""/>
    </radialGradient>
    <radialGradient gradientUnits="userSpaceOnUse" cx="0" cy="0" r="4.412" id="gradient-8" gradientTransform="matrix(0.953375, 0.011378, -0.011934, 0.999929, 0, 0)">
      <stop offset="0" style="stop-color: rgb(23, 55, 0);"/>
      <stop offset="1" style=""/>
    </radialGradient>
    <radialGradient gradientUnits="userSpaceOnUse" cx="0" cy="0" r="4.412" id="gradient-9">
      <stop offset="0" style="stop-color: rgb(23, 55, 0);"/>
      <stop offset="1" style=""/>
    </radialGradient>
    <radialGradient gradientUnits="userSpaceOnUse" cx="0" cy="0" r="8.833" id="gradient-12" gradientTransform="matrix(0.99999, 0.004403, -0.073855, 17.113943, 0, 0)">
      <stop offset="0" style="stop-color: rgb(7, 29, 0);"/>
      <stop offset="1" style="stop-color: rgba(0, 0, 0, 1)"/>
    </radialGradient>
    <radialGradient gradientUnits="userSpaceOnUse" cx="0" cy="0" r="8.833" id="gradient-13" gradientTransform="matrix(1, 0, 0, 15.409077, 0, 0)">
      <stop offset="0" style="stop-color: rgb(22, 72, 9);"/>
      <stop offset="1" style="stop-color: rgba(0, 0, 0, 1)"/>
    </radialGradient>
    <radialGradient gradientUnits="userSpaceOnUse" cx="0" cy="0" r="4.384" id="gradient-11" gradientTransform="matrix(0.99997, -0.007688, 0.062198, 8.090608, 0, 0)">
      <stop offset="0" style="stop-color: rgb(23, 55, 0);"/>
      <stop offset="1" style=""/>
    </radialGradient>
    <radialGradient gradientUnits="userSpaceOnUse" cx="-0.806" cy="-0.989" r="24.526" id="gradient-10" gradientTransform="matrix(0.003939, 1.294025, -1.095624, 0.01274, 0, 0)">
      <stop offset="0" style="stop-color: rgb(23, 55, 0);"/>
      <stop offset="1" style=""/>
    </radialGradient>
    <linearGradient gradientUnits="userSpaceOnUse" x1="0" y1="-7.576" x2="0" y2="7.576" id="gradient-14" gradientTransform="matrix(0.043149, 0.999075, -21.159794, 0.913847, -24.869993, 2.942999)">
      <stop offset="0" style=""/>
      <stop offset="1" style="stop-color: rgb(3, 13, 0);"/>
    </linearGradient>
    <linearGradient gradientUnits="userSpaceOnUse" x1="0" y1="-53.842" x2="0" y2="53.842" id="gradient-15" gradientTransform="matrix(0.967661, 0.252259, -0.250817, 0.96214, -14.014088, -2.038426)">
      <stop offset="0" style=""/>
      <stop offset="1" style="stop-color: rgb(8, 24, 0);"/>
    </linearGradient>
    <linearGradient gradientUnits="userSpaceOnUse" x1="0" y1="-63.876" x2="0" y2="63.876" id="gradient-16" gradientTransform="matrix(0.562491, 0.826809, -0.952121, 0.647753, -11.03637, 20.971326)">
      <stop offset="0" style="stop-color: rgba(0, 0, 0, 1)"/>
      <stop offset="1" style="stop-color: rgb(11, 27, 0);"/>
    </linearGradient>
    <linearGradient gradientUnits="userSpaceOnUse" x1="0" y1="-24.417" x2="0" y2="24.417" id="gradient-17" gradientTransform="matrix(0.774303, -0.63282, 0.449721, 0.550276, -12.890536, -1.432291)">
      <stop offset="0" style="stop-color: rgb(176, 255, 160);"/>
      <stop offset="1" style="stop-color: rgb(224, 169, 92);"/>
    </linearGradient>
    <linearGradient gradientUnits="userSpaceOnUse" x1="0" y1="-43.38" x2="0" y2="43.38" id="gradient-18" gradientTransform="matrix(0.9595, -0.281712, 0.200311, 0.682263, -0.299639, 5.99281)">
      <stop offset="0" style=""/>
      <stop offset="1" style="stop-color: rgb(7, 14, 0);"/>
    </linearGradient>
    <linearGradient gradientUnits="userSpaceOnUse" x1="276.949" y1="429.114" x2="276.949" y2="455.826" id="gradient-19" gradientTransform="matrix(0.39857, 0.917144, -1.766072, 0.767503, 947.305746, -147.427039)">
      <stop offset="0" style="stop-color: rgba(154, 58, 58, 0);"/>
      <stop offset="1" style="stop-color: rgba(0, 0, 0, 0)"/>
    </linearGradient>
    <linearGradient gradientUnits="userSpaceOnUse" x1="276.949" y1="429.114" x2="276.949" y2="455.826" id="gradient-22" gradientTransform="matrix(0.315192, 0.949034, -1.786199, 0.59324, 979.919, -77.665946)">
      <stop offset="0" style=""/>
      <stop offset="1" style="stop-color: rgb(35, 88, 0);"/>
    </linearGradient>
    <linearGradient gradientUnits="userSpaceOnUse" x1="347.817" y1="422.613" x2="347.817" y2="449.325" id="gradient-23" gradientTransform="matrix(-0.301985, -0.953319, 1.766762, -0.55967, -317.480899, 1016.646759)">
      <stop offset="0" style="stop-color: rgb(30, 74, 1);"/>
      <stop offset="1" style=""/>
    </linearGradient>
    <radialGradient gradientUnits="userSpaceOnUse" cx="-3.139" cy="58.323" r="65.977" id="gradient-1" gradientTransform="matrix(-1.670761, -3.828556, 1.052903, -0.459483, -57.148029, 71.811892)">
      <stop offset="0" style=""/>
      <stop offset="1" style="stop-color: rgb(11, 22, 0);"/>
    </radialGradient>
    <linearGradient gradientUnits="userSpaceOnUse" x1="0" y1="-70.669" x2="0" y2="70.669" id="gradient-24" gradientTransform="matrix(-0.735561, -0.677459, 0.856099, -0.92952, 9.168831, 3.38567)">
      <stop offset="0" style="stop-color: rgb(14, 33, 0);"/>
      <stop offset="1" style=""/>
    </linearGradient>
    <linearGradient gradientUnits="userSpaceOnUse" x1="418.191" y1="395.191" x2="418.191" y2="450.589" id="gradient-25" gradientTransform="matrix(0.645379, 0.763862, -1.089636, 0.920622, 582.911008, -286.072192)">
      <stop offset="0" style=""/>
      <stop offset="1" style="stop-color: rgb(13, 31, 0);"/>
    </linearGradient>
    <radialGradient gradientUnits="userSpaceOnUse" cx="0" cy="0" r="73.864" id="gradient-26" gradientTransform="matrix(0.944003, -0.007507, 0.015128, 3.881678, 0, 0)">
      <stop offset="0" style="stop-color: rgb(45, 122, 0);"/>
      <stop offset="1" style=""/>
    </radialGradient>
    <radialGradient gradientUnits="userSpaceOnUse" cx="0" cy="0" r="73.864" id="gradient-27" gradientTransform="matrix(0.944003, -0.005255, 0.015128, 2.717174, 178.338531, 169.809525)">
      <stop offset="0" style="stop-color: rgb(45, 122, 0);"/>
      <stop offset="1" style=""/>
    </radialGradient>
    <linearGradient gradientUnits="userSpaceOnUse" x1="0" y1="-14.073" x2="0" y2="14.073" id="gradient-28" gradientTransform="matrix(-0.382653, -1.080954, 0.395036, -0.191427, -1.111868, 7.227143)">
      <stop offset="0" style="stop-color: rgb(3, 14, 0);"/>
      <stop offset="1" style=""/>
    </linearGradient>
    <linearGradient gradientUnits="userSpaceOnUse" x1="0" y1="-9.687" x2="0" y2="9.687" id="gradient-29" gradientTransform="matrix(0.916041, 0.440804, -0.219405, 0.564758, 1.222524, 2.483925)">
      <stop offset="0" style=""/>
      <stop offset="1" style="stop-color: rgb(3, 14, 0);"/>
    </linearGradient>
    <linearGradient gradientUnits="userSpaceOnUse" x1="175.449" y1="198.937" x2="175.449" y2="271.967" id="gradient-30" gradientTransform="matrix(-0.840953, -0.541108, 0.388045, -0.603074, 228.142958, 483.998103)">
      <stop offset="0" style="stop-color: rgb(8, 22, 0);"/>
      <stop offset="1" style=""/>
    </linearGradient>
    <linearGradient gradientUnits="userSpaceOnUse" x1="175.449" y1="198.937" x2="175.449" y2="271.967" id="gradient-21" gradientTransform="matrix(-0.840953, -0.541108, 0.388045, -0.603074, 383.757324, 483.705261)">
      <stop offset="0" style="stop-color: rgb(8, 22, 0);"/>
      <stop offset="1" style=""/>
    </linearGradient>
  </defs>
  <path style="stroke-width: 1; stroke-dasharray: none; stroke-linecap: butt; stroke-dashoffset: 0; stroke-linejoin: miter; stroke-miterlimit: 4; fill-rule: nonzero; opacity: 1; stroke: rgba(0, 0, 0, 0); fill: url(#gradient-21);" vector-effect="non-scaling-stroke" d="M 326.248 222.469 C 326.248 222.469 330.69 269.942 299.602 271.167 C 268.515 272.392 368.515 271.014 368.515 271.014 C 368.515 271.014 341.959 276.032 342.19 222.452 C 342.421 168.873 326.248 222.469 326.248 222.469 Z" stroke-linecap="round"/>
  <path style="stroke-width: 1; stroke-dasharray: none; stroke-linecap: butt; stroke-dashoffset: 0; stroke-linejoin: miter; stroke-miterlimit: 4; fill-rule: nonzero; opacity: 1; stroke: rgba(0, 0, 0, 0); fill: url(#gradient-30);" vector-effect="non-scaling-stroke" d="M 170.634 222.762 C 170.634 222.762 175.076 270.235 143.988 271.46 C 112.901 272.685 212.901 271.307 212.901 271.307 C 212.901 271.307 186.345 276.325 186.576 222.745 C 186.807 169.166 170.634 222.762 170.634 222.762 Z" stroke-linecap="round"/>
  <g transform="matrix(1, 0, 0, 0.99, 448.869995, 371.799988)" id="HdDyvszPtXTCj6XdPqRXR">
    <path style="stroke-width: 1; stroke-dasharray: none; stroke-linecap: butt; stroke-dashoffset: 0; stroke-linejoin: miter; stroke-miterlimit: 4; fill-rule: nonzero; opacity: 1; fill: url(#gradient-12); stroke: rgba(0, 0, 0, 0);" vector-effect="non-scaling-stroke" transform=" translate(0, 0)" d="M -8.83333 -87.24999 C -8.83333 -87.24999 -8.83333 -87.47981 -8.83333 -43.85480999999999 C -8.83333 -0.2298099999999934 -8.83333 87.25001 -8.83333 87.25001 L 8.83334 87.25001 L 8.83334 -87.24999 z" stroke-linecap="round"/>
  </g>
  <g transform="matrix(1 0 0 1.02 92.8 368.36)" id="j4QZnRUR-oCDviPAB1XIp">
    <path style="stroke-width: 1; stroke-dasharray: none; stroke-linecap: butt; stroke-dashoffset: 0; stroke-linejoin: miter; stroke-miterlimit: 4; fill-rule: nonzero; opacity: 1; fill: url(#gradient-13); stroke: rgba(0, 0, 0, 0);" vector-effect="non-scaling-stroke" d="M -8.833 -87.25 C -8.833 -87.25 -8.833 -87.48 -8.833 -43.855 C -8.833 -0.23 -8.833 87.25 -8.833 87.25 L 8.833 87.25 L 8.833 -87.25 L -8.833 -87.25 Z" stroke-linecap="round"/>
  </g>
  <g transform="matrix(1.21, 0.15, -0.13, 1.09, 354.399994, 409.690002)" id="h6diBxqxJaJWUGFK_hdEu">
    <path style="stroke-width: 1; stroke-dasharray: none; stroke-linecap: butt; stroke-dashoffset: 0; stroke-linejoin: miter; stroke-miterlimit: 4; fill-rule: nonzero; opacity: 1; fill: url(#gradient-29); stroke: rgba(0, 0, 0, 0);" vector-effect="non-scaling-stroke" transform=" translate(0, 0)" d="M -1.12263 9.68709 L 7.7592799999999995 4.88577 L 3.3328099999999994 -5.21357 L -4.102760000000001 -9.68708 L -7.75928 -5.21357 z" stroke-linecap="round"/>
  </g>
  <g transform="matrix(1.11 0 0 1.11 334.34 457.82)" id="D7vwP2KSY0IJ2yutVUFuu">
    <path style="stroke: rgb(0,0,0); stroke-width: 1; stroke-dasharray: none; stroke-linecap: butt; stroke-dashoffset: 0; stroke-linejoin: miter; stroke-miterlimit: 4; fill: rgb(255,255,255); fill-rule: nonzero; opacity: 1;" vector-effect="non-scaling-stroke" transform=" translate(0, 0)" d="M -298.86364 -0.25 L 298.86363 0.25" stroke-linecap="round"/>
  </g>
  <g transform="matrix(1 0 0 1 -199.87 441.69)" id="BPJ3ICoqXjxAGN0z2gMt4">
    <path style="stroke: rgb(0,0,0); stroke-width: 1; stroke-dasharray: none; stroke-linecap: round; stroke-dashoffset: 0; stroke-linejoin: round; stroke-miterlimit: 10; fill: none; fill-rule: nonzero; opacity: 1;" vector-effect="non-scaling-stroke" transform=" translate(199.87, -441.69)" d="M -199.8690926916222 442.07377627309916 Q -199.8680926916222 442.07377627309916 -199.8680926916222 441.6949883943113 L -199.8670926916222 441.3162005155234" stroke-linecap="round"/>
  </g>
  <g transform="matrix(1 0 0 1 458.71 260.53)" id="BCLE6T-Lcujo5FxzIJL96">
    <path style="stroke: rgb(0,0,0); stroke-width: 1; stroke-dasharray: none; stroke-linecap: butt; stroke-dashoffset: 0; stroke-linejoin: miter; stroke-miterlimit: 4; fill: rgb(255,255,255); fill-rule: nonzero; opacity: 1;" vector-effect="non-scaling-stroke" transform=" translate(0, 0)" d="M 0 0" stroke-linecap="round"/>
  </g>
  <g transform="matrix(1 0 0 1 458.21 256.47)" id="l3RZUDqKCLufBkX6KfMRB">
    <path style="stroke: rgb(0,0,0); stroke-width: 1; stroke-dasharray: none; stroke-linecap: butt; stroke-dashoffset: 0; stroke-linejoin: miter; stroke-miterlimit: 4; fill: rgb(255,255,255); fill-rule: nonzero; opacity: 1;" vector-effect="non-scaling-stroke" transform=" translate(0, 0)" d="M 0 0" stroke-linecap="round"/>
  </g>
  <g transform="matrix(0.86, 0, 0, 0.44, 418.070007, 349.453552)" id="BV74lOUFkwoNwKXwTUJM3">
    <path style="stroke-width: 1; stroke-dasharray: none; stroke-linecap: butt; stroke-dashoffset: 0; stroke-linejoin: miter; stroke-miterlimit: 4; fill-rule: nonzero; opacity: 1; fill: url(#gradient-10); stroke: rgba(0, 0, 0, 0);" vector-effect="non-scaling-stroke" transform=" translate(0, 0)" d="M -24.52606 -1.07374 C -24.52606 -14.0261 -19.077730000000003 -24.52606 -12.35688 -24.52606 L 12.35689 -24.52606 L 12.35689 -24.52606 C 19.07774 -24.52606 24.52607 -14.026100000000001 24.52607 -1.0737400000000008 L 24.52607 6.943999999999999 L 24.52607 6.943999999999999 C 24.52607 16.6543 20.44149 24.526059999999998 15.40291 24.526059999999998 L -15.4029 24.526059999999998 L -15.4029 24.526059999999998 C -20.44148 24.526059999999998 -24.52606 16.6543 -24.52606 6.943999999999999 z" stroke-linecap="round"/>
  </g>
  <g transform="matrix(1 0 0 1 418.41 378.05)" id="JrV4Oz-dsUMQsvdN9h_qB">
    <path style="stroke-width: 1; stroke-dasharray: none; stroke-linecap: butt; stroke-dashoffset: 0; stroke-linejoin: miter; stroke-miterlimit: 4; fill-rule: nonzero; opacity: 1; fill: url(#gradient-11); stroke: rgba(0, 0, 0, 0);" vector-effect="non-scaling-stroke" transform=" translate(0, 0)" d="M -0.34041 -17.77802 L 4.3838799999999996 -17.77802 L 4.3838799999999996 17.77802 L -0.3404100000000003 17.77802 L -4.38389 17.77802 L -4.38389 -17.77802 z" stroke-linecap="round"/>
  </g>
  <g transform="matrix(0.89 0 0 0.89 418.41 453.43)" id="atF7GnfTZLPCCqqxV4tTu">
    <path style="stroke-dasharray: none; stroke-linecap: butt; stroke-dashoffset: 0; stroke-linejoin: miter; stroke-miterlimit: 4; fill-rule: nonzero; opacity: 1; fill: url(#gradient-7); stroke-width: 1.1236px; stroke: rgba(255, 255, 255, 0);" transform=" translate(0, 0)" d="M 0 -4.41176 C 2.43529 -4.41176 4.41176 -2.43529 4.41176 0 C 4.41176 2.43529 2.43529 4.41176 0 4.41176 C -2.43529 4.41176 -4.41176 2.43529 -4.41176 0 C -4.41176 -2.43529 -2.43529 -4.41176 0 -4.41176 z" stroke-linecap="round"/>
  </g>
  <g transform="matrix(0.89 0 0 0.89 388.64 453.43)" id="azDGp4CpjG5mzx8RZ1ZBq">
    <path style="stroke-width: 1; stroke-dasharray: none; stroke-linecap: butt; stroke-dashoffset: 0; stroke-linejoin: miter; stroke-miterlimit: 4; fill-rule: nonzero; opacity: 1; fill: url(#gradient-5); stroke: rgba(0, 0, 0, 0);" vector-effect="non-scaling-stroke" transform=" translate(0, 0)" d="M 0 -4.41176 C 2.43529 -4.41176 4.41176 -2.43529 4.41176 0 C 4.41176 2.43529 2.43529 4.41176 0 4.41176 C -2.43529 4.41176 -4.41176 2.43529 -4.41176 0 C -4.41176 -2.43529 -2.43529 -4.41176 0 -4.41176 z" stroke-linecap="round"/>
  </g>
  <g transform="matrix(1 0 0 1 367.6 257.01)" id="fJWJP7Yot9EnnbLHi_sz4">
    <path style="stroke-width: 1; stroke-dasharray: none; stroke-linecap: butt; stroke-dashoffset: 0; stroke-linejoin: miter; stroke-miterlimit: 4; fill-rule: nonzero; opacity: 1; fill: url(#gradient-17); stroke: rgba(0, 0, 0, 0);" vector-effect="non-scaling-stroke" transform=" translate(0, 0)" d="M 26.27675 -16.83991 C 26.27675 -16.83991 23.13799 8.72993 -6.91872 5.51632 C -11.044910000000002 5.075150000000001 -17.079349999999998 4.91221 -20.436619999999998 5.51632 C -41.53497 9.312750000000001 -44.77715 24.41747 -44.77715 24.41747 L 32.16047 18.12083 L 21.039319999999996 14.036930000000002 C 21.039319999999996 14.036930000000002 28.878399999999996 10.40313 31.026249999999997 7.857820000000002 C 36.19416 1.7335900000000022 48.14449 -8.993009999999996 43.87133 -18.741169999999997 C 37.82218 -32.54079 26.27675 -16.839899999999997 26.27675 -16.839899999999997 z" stroke-linecap="round"/>
  </g>
  <g transform="matrix(1 0 0 1 271.09 277.68)" id="zfqcIyVmOr6byrrl2UfpR">
    <path style="stroke-width: 1; stroke-dasharray: none; stroke-linecap: butt; stroke-dashoffset: 0; stroke-linejoin: miter; stroke-miterlimit: 4; fill-rule: nonzero; opacity: 1; fill: url(#gradient-14); stroke: rgba(0, 0, 0, 0);" vector-effect="non-scaling-stroke" transform=" translate(0, 0)" d="M -187.62121 7.57576 L 187.62121 7.57576 L 187.62121 -7.57576 L -187.62121 -7.57576 z" stroke-linecap="round"/>
  </g>
  <g transform="matrix(1 0 0 0.7 334.24 169.67)" id="i030sItWsmjbDKDEMfquk">
    <path style="stroke-width: 1; stroke-dasharray: none; stroke-linecap: butt; stroke-dashoffset: 0; stroke-linejoin: miter; stroke-miterlimit: 4; fill-rule: nonzero; opacity: 1; fill: url(#gradient-26); stroke: rgba(0, 0, 0, 0);" vector-effect="non-scaling-stroke" d="M -73.864 -73.864 L 73.864 -73.864 L 73.864 73.864 L -73.864 73.864 L -73.864 -73.864 Z" stroke-linecap="round"/>
  </g>
  <path style="stroke: rgba(0, 0, 0, 0); fill: url(#gradient-25);" d="M 425.469 395.191 L 410.373 395.191 C 410.373 395.191 413.207 415.804 401.319 419.206 C 389.431 422.608 359.692 442.906 359.692 442.906 L 359.558 450.589 L 400.264 433.201 L 385.976 449.106 L 390.963 449.106 L 409.16 433.605 L 417.247 449.51 L 419.134 449.376 L 426.682 433.201 C 426.682 433.201 445.822 449.78 445.957 449.78 C 446.092 449.78 450.001 449.915 450.001 449.915 L 435.039 433.066 L 476.823 450.049 L 476.554 442.771 C 476.554 442.771 439.891 421.205 433.421 419.318 C 426.951 417.431 425.334 395.865 425.469 395.191 Z"/>
  <g transform="matrix(0.89 0 0 0.89 360.68 453.43)" id="zieb-axZburiXdbdrccOy">
    <path style="stroke-width: 1; stroke-dasharray: none; stroke-linecap: butt; stroke-dashoffset: 0; stroke-linejoin: miter; stroke-miterlimit: 4; fill-rule: nonzero; opacity: 1; fill: url(#gradient-6); stroke: rgba(0, 0, 0, 0);" vector-effect="non-scaling-stroke" transform=" translate(0, 0)" d="M 0 -4.41176 C 2.43529 -4.41176 4.41176 -2.43529 4.41176 0 C 4.41176 2.43529 2.43529 4.41176 0 4.41176 C -2.43529 4.41176 -4.41176 2.43529 -4.41176 0 C -4.41176 -2.43529 -2.43529 -4.41176 0 -4.41176 z" stroke-linecap="round"/>
  </g>
  <g transform="matrix(0.98, 0, 0, 0.63, 334.23999, 169.669998)" id="nM2ujG-yYQK8MK7LOklJZ">
    <path style="stroke-width: 1; stroke-dasharray: none; stroke-linecap: butt; stroke-dashoffset: 0; stroke-linejoin: miter; stroke-miterlimit: 4; fill: rgb(255, 255, 255); fill-rule: nonzero; opacity: 1; stroke: rgba(0, 0, 0, 0);" vector-effect="non-scaling-stroke" transform=" translate(0, 0)" d="M -66.66667 -66.66667 L 66.66666 -66.66667 L 66.66666 66.66666 L -66.66667 66.66666 z" stroke-linecap="round"/>
  </g>
  <g transform="matrix(1 0 0 1 345.16 366.93)" id="g_zHA99m7YKMGKZ3tc6a_">
    <path style="stroke-width: 1; stroke-dasharray: none; stroke-linecap: butt; stroke-dashoffset: 0; stroke-linejoin: miter; stroke-miterlimit: 4; fill-rule: nonzero; opacity: 1; fill: url(#gradient-18); stroke: rgba(0, 0, 0, 0);" vector-effect="non-scaling-stroke" transform=" translate(0, 0)" d="M 5.14209 -17.3009 L 19.94503 35.71428 L -2.8718400000000024 43.37979 L -19.945010000000003 -18.04152 L -7.695960000000003 -43.3798 L 8.277979999999998 -43.3798 z" stroke-linecap="round"/>
  </g>
  <g transform="matrix(1, 0, 0, 1, 460.079987, 170.990005)" id="Z8Il61dwwEoLKBD7reNAY">
    <path style="stroke-width: 1; stroke-dasharray: none; stroke-linecap: butt; stroke-dashoffset: 0; stroke-linejoin: miter; stroke-miterlimit: 4; fill-rule: nonzero; opacity: 1; fill: url(#gradient-4); stroke: rgba(0, 0, 0, 0);" vector-effect="non-scaling-stroke" transform=" translate(0, 0)" d="M -15.7468 -34.23095 C -15.7468 -34.23095 -25.08737 -8.07978 -16.7468 6.689990000000002 C -15.686630000000001 8.567370000000002 -8.02971 4.330400000000002 -7.39387 5.968700000000002 C -3.0274099999999997 17.21927 -14.50202 28.82881 -14.50202 28.82881 L 9.92742 34.230940000000004 L 17.41102 28.828810000000004 C 17.41102 28.828810000000004 10.28203 23.692940000000004 12.409690000000001 15.064100000000005 C 14.537350000000002 6.435260000000005 20.21111 -31.25369 20.21111 -31.25369 z" stroke-linecap="round"/>
  </g>
  <g transform="matrix(1.17, 0, 0, 1, 295.269989, 414.720001)" id="5UY4AwiylxqVy0kWxC0cc">
    <path style="stroke-width: 1; stroke-dasharray: none; stroke-linecap: butt; stroke-dashoffset: 0; stroke-linejoin: miter; stroke-miterlimit: 4; fill-rule: nonzero; opacity: 1; fill: url(#gradient-28); stroke: rgba(0, 0, 0, 0);" vector-effect="non-scaling-stroke" transform=" translate(0, 0)" d="M -5.13245 -1.71806 L -9.10596 14.07285 L 2.81457 14.07285 L 5.35726 -1.7180599999999995 L 9.10596 -14.07284 z" stroke-linecap="round"/>
  </g>
  <g transform="matrix(1 0 0 1 356.93 349.63)" id="EmXWdi2-X8W09ZTr-qdh9">
    <path style="stroke-width: 1; stroke-dasharray: none; stroke-linecap: butt; stroke-dashoffset: 0; stroke-linejoin: miter; stroke-miterlimit: 4; fill-rule: nonzero; opacity: 1; fill: url(#gradient-16); stroke: rgba(0, 0, 0, 0);" vector-effect="non-scaling-stroke" transform=" translate(0, 0)" d="M 43.14929 -50.06162 L -10.801389999999998 -50.06162 C -10.801389999999998 -50.06162 -35.54007 -52.50064 -50.87108 -8.598209999999995 C -66.20209 35.304230000000004 -74.56446 63.87566000000001 -74.56446 63.87566000000001 L -48.78049 63.87566000000001 L -22.68404 -8.598209999999995 C -22.68404 -8.598209999999995 -17.421599999999998 -20.793329999999994 -2.4390199999999993 -14.521549999999994 C 12.543560000000001 -8.249769999999994 61.483380000000004 -12.122549999999993 61.483380000000004 -12.122549999999993 L 74.56446 -39.60865999999999 L 71.08014 -55.28809999999999 L 53.54632 -63.875659999999996 z" stroke-linecap="round"/>
  </g>
  <g transform="matrix(1 0 0 1 446.34 253.66)" id="dikyFB-Nwx2Jy39GalZ8c">
    <path style="stroke-width: 1; stroke-dasharray: none; stroke-linecap: butt; stroke-dashoffset: 0; stroke-linejoin: miter; stroke-miterlimit: 4; fill-rule: nonzero; opacity: 1; fill: url(#gradient-15); stroke: rgba(0, 0, 0, 0);" vector-effect="non-scaling-stroke" d="M -23.50209 -49.0253 C -29.947139999999997 -45.15204 -33.317409999999995 -39.404270000000004 -37.73234 -34.71603 C -48.27647 -23.519150000000003 -53.27116 -14.084080000000004 -53.27116 -14.084080000000004 L -32.81244 2.3114399999999975 L -46.262640000000005 45.466719999999995 C -46.262640000000005 45.466719999999995 -14.183760000000007 60.52553999999999 6.350999999999992 50.25816 C 26.88575999999999 39.99078 52.99849999999999 -45.72852000000001 52.99849999999999 -45.72852000000001 C 52.99849999999999 -45.72852000000001 57.135729999999995 -53.78462000000001 33.17850999999999 -53.78462000000001 C 28.65124999999999 -53.78462000000001 25.76413999999999 -52.47400000000001 23.82649999999999 -52.31137000000001 C 17.88475999999999 -51.81266000000001 20.871089999999988 -52.03214000000001 12.86926999999999 -52.31137000000001 C 9.67194999999999 -52.42294000000001 5.73961999999999 -53.30914000000001 -2.5019300000000104 -53.78462000000001 C -9.68093000000001 -54.19879000000001 -17.98476000000001 -52.341040000000014 -23.502080000000014 -49.02531000000001 z" stroke-linecap="round" transform=" translate(0, 0)"/>
  </g>
  <g transform="matrix(0.89, 0, 0, 0.89, 448.26001, 453.429993)" id="ax_ZpPv2BTuwwdzeVwxcT">
    <path style="stroke-width: 1; stroke-dasharray: none; stroke-linecap: butt; stroke-dashoffset: 0; stroke-linejoin: miter; stroke-miterlimit: 4; fill-rule: nonzero; opacity: 1; fill: url(#gradient-8); stroke: rgba(0, 0, 0, 0);" vector-effect="non-scaling-stroke" transform=" translate(0, 0)" d="M 0 -4.41176 C 2.43529 -4.41176 4.41176 -2.43529 4.41176 0 C 4.41176 2.43529 2.43529 4.41176 0 4.41176 C -2.43529 4.41176 -4.41176 2.43529 -4.41176 0 C -4.41176 -2.43529 -2.43529 -4.41176 0 -4.41176 z" stroke-linecap="round"/>
  </g>
  <g transform="matrix(1 0 0 1 479.52 279.1)" id="1xdlW30MZsaW1laM9HI2k">
    <path style="stroke-width: 1; stroke-dasharray: none; stroke-linecap: butt; stroke-dashoffset: 0; stroke-linejoin: miter; stroke-miterlimit: 4; fill-rule: nonzero; opacity: 1; stroke: rgba(0, 0, 0, 0); fill: url(#gradient-24);" vector-effect="non-scaling-stroke" transform=" translate(0, 0)" d="M -10.20116 -70.58428 L 62.200959999999995 -70.58428 C 62.200959999999995 -70.58428 64.49901 -70.77543 65.8322 -70.58428 C 68.17988 -70.24768 70.90209 -70.03435 72.0056 -65.10127 C 72.94665 -60.89443 71.68198 -52.822720000000004 67.75255 -43.473389999999995 C 56.5987 -16.934929999999994 40.26338 41.42785000000001 36.80184 47.19708 C 33.3403 52.96631 30.083199999999998 71.77221 8.16012 70.61837 C -13.76296 69.46452 -72.3024 70.61837 -72.3024 70.61837 L -48.99958000000001 34.62681" stroke-linecap="round"/>
  </g>
  <g transform="matrix(1 0 0 1 406.53 279.07)" id="5kZJgfrwGnjuMdwzVtjjL">
    <path style="stroke-width: 1; stroke-dasharray: none; stroke-linecap: butt; stroke-dashoffset: 0; stroke-linejoin: miter; stroke-miterlimit: 4; fill-rule: nonzero; opacity: 1; fill: url(#gradient-1); stroke: rgba(0, 0, 0, 0);" vector-effect="non-scaling-stroke" transform=" translate(0, 0)" d="M 61.57849 -70.60193 C 60.417550000000006 -70.45268 57.106860000000005 -69.80881 55.61543 -68.32148 C 51.81523000000001 -64.53169 48.561960000000006 -57.17837999999999 48.561960000000006 -57.17837999999999 L 29.622570000000007 -1.3753499999999903 L 14.471050000000007 40.94481000000001 C 14.471050000000007 40.94481000000001 12.950470000000006 46.75765000000001 7.675490000000007 50.38039000000001 C 4.563430000000007 52.517690000000016 0.14462000000000685 53.451200000000014 -6.039649999999993 53.17010000000001 C -22.70631999999999 52.412520000000015 -48.40774 53.17010000000001 -48.40774 53.17010000000001 C -48.40774 53.17010000000001 -55.79559 52.741380000000014 -60.95088 54.590800000000016 C -64.31051 55.79604000000002 -66.47534 58.21545000000002 -65.87752 61.503430000000016 C -65.45993 63.80020000000002 -64.37421 66.16458000000002 -62.399240000000006 67.45315000000002 C -57.20846 70.83989000000003 -48.40773000000001 70.59434000000002 -48.40773000000001 70.59434000000002 L -6.039640000000006 70.59434000000002 C -6.039640000000006 70.59434000000002 4.541199999999995 71.59301000000002 14.471059999999994 67.45315000000002 C 20.629289999999994 64.88573000000002 26.432729999999992 59.54979000000002 29.622579999999992 53.17009000000002 C 37.95590999999999 36.50342000000002 64.47106 -52.132939999999984 64.47106 -52.132939999999984 C 64.47106 -52.132939999999984 66.10364999999999 -57.32362999999998 65.96871999999999 -62.09549999999999 C 65.83084 -66.97155999999998 63.21951999999999 -71.42245999999999 61.57849999999999 -70.60194999999999 C 61.25755999999999 -70.44147999999998 62.403789999999994 -70.70804999999999 61.57849999999999 -70.60194999999999 z" stroke-linecap="round"/>
  </g>
  <g transform="matrix(1 0 0 1 443.84 199.31)" id="3CluZQKYxypEHFegWwbFJ">
    <path style="stroke: rgb(0,0,0); stroke-width: 1; stroke-dasharray: none; stroke-linecap: butt; stroke-dashoffset: 0; stroke-linejoin: miter; stroke-miterlimit: 4; fill: rgb(255,255,255); fill-rule: nonzero; opacity: 1;" vector-effect="non-scaling-stroke" transform=" translate(0, 0)" d="M 0 0" stroke-linecap="round"/>
  </g>
  <g transform="matrix(1 0 0 1 177.5 212.41)" id="8uE_Qdfmcmr4GHRAJG_oO">
    <path style="stroke: rgb(0,0,0); stroke-width: 1; stroke-dasharray: none; stroke-linecap: butt; stroke-dashoffset: 0; stroke-linejoin: miter; stroke-miterlimit: 4; fill: rgb(255,255,255); fill-opacity: 0; fill-rule: nonzero; opacity: 1;" vector-effect="non-scaling-stroke" transform=" translate(0, 0)" d="M 0 0" stroke-linecap="round"/>
  </g>
  <path style="fill: url(#gradient-2); stroke: rgba(0, 0, 0, 0);" d="M 477.838 164.915 C 481.904 164.915 486.265 177.949 486.272 181.312 C 485.247 182.399 481.507 178.527 480.577 177.648 C 476.624 173.911 472.772 172.583 468.784 172.377 C 465.732 172.22 464.507 172.123 462.427 173.593 C 459.994 175.312 465.163 176.239 466.871 176.239 C 466.483 175.732 468.946 178.031 468.568 177.712 C 467.776 177.042 462.096 177.736 461.093 177.887 C 458.903 178.218 456.734 178.082 454.523 177.887 C 447.279 177.249 435.97 172.966 433.424 164.951 C 434.011 165.568 433.857 167.713 434.113 168.784 C 434.451 170.196 435.563 171.031 436.387 171.898 C 437.745 172.855 434.051 170.569 433.209 169.502 C 431.157 166.906 429.012 162.35 429.004 158.842 C 428.57 163.034 429.174 167.793 429.437 168.172 C 429.964 168.935 427.512 162.328 427.346 160.778 C 426.834 156.007 426.331 152.713 427.269 147.942 C 429.921 134.467 436.51 123.978 445.544 114.402 C 445.861 115.402 447.721 115.337 448.718 115.6 C 449.951 115.926 451.415 118.091 451.672 119.433 C 452.972 126.224 447.843 133.288 449.453 140.036 C 450.442 144.183 453.418 146.398 456.483 143.15 C 456.489 145.69 456.269 148.657 457.634 150.816 C 461.242 156.52 471.575 159.202 476.47 154.013 C 476.316 154.177 474.853 153.856 476.525 153.924 C 477.107 153.948 478.235 154.118 478.484 154.17 C 479.685 154.424 481.363 155.314 482.339 156.087 C 484.813 158.044 487.689 160.103 489.606 162.795 C 490.393 163.902 491.103 165.91 491.923 166.775 C 492.881 166.775 488.991 165.61 487.797 165.19 C 484.226 163.932 481.114 164.951 477.829 164.951" transform="matrix(-0.999997, -0.00232, 0.00232, -0.999997, 918.472047, 296.970283)"/>
  <path style="stroke: rgba(255, 255, 255, 0); fill: url(#gradient-3);" d="M 433.001 107.823 C 430.69 107.823 430.049 113.596 429.788 115.048 C 428.812 120.523 430.467 123.827 432.88 128.923 C 440.169 144.308 460.51 138.375 474.657 154.838 C 476.97 157.53 482.497 163.19 482.836 164.068 C 482.844 164.087 478.129 153.494 475.221 149.193 C 472.731 145.514 469.614 141.265 464.913 140.471 C 454.477 138.705 450.79 137.484 447.747 128.259 C 446.816 125.439 442.819 124.985 440.813 122.971 C 439.598 121.752 436.185 115.768 439.47 110.834 C 460.321 79.52 439.938 99.12 432.041 108.444" transform="matrix(-0.991855, 0.127371, -0.127371, -0.991855, 926.674576, 215.746268)"/>
  <path style="stroke: url(#gradient-19); fill: url(#gradient-22);" d="M 252.16 455.826 L 301.737 439.557 L 299.758 429.114 L 285.688 429.114 C 265.058 437.249 253.882 446.153 252.16 455.826 Z" transform="matrix(0.997526, -0.070303, 0.070302, 0.997526, -30.421287, 20.5651)"/>
  <path style="stroke: rgba(0, 0, 0, 0); fill: url(#gradient-23);" d="M 323.028 449.325 L 372.605 433.056 L 370.626 422.613 L 356.556 422.613 C 335.926 430.748 324.75 439.652 323.028 449.325 Z" transform="matrix(0.928238, -0.37199, 0.371985, 0.928238, -137.213865, 160.670481)"/>
  <g transform="matrix(0.89, 0, 0, 0.89, 476.359985, 453.429993)" id="qVjFM3MJT6-Hd43f0qgkH">
    <path style="stroke-width: 1; stroke-dasharray: none; stroke-linecap: butt; stroke-dashoffset: 0; stroke-linejoin: miter; stroke-miterlimit: 4; fill-rule: nonzero; opacity: 1; fill: url(#gradient-9); stroke: rgba(0, 0, 0, 0);" vector-effect="non-scaling-stroke" transform=" translate(0, 0)" d="M 0 -4.41176 C 2.43529 -4.41176 4.41176 -2.43529 4.41176 0 C 4.41176 2.43529 2.43529 4.41176 0 4.41176 C -2.43529 4.41176 -4.41176 2.43529 -4.41176 0 C -4.41176 -2.43529 -2.43529 -4.41176 0 -4.41176 z" stroke-linecap="round"/>
  </g>
  <path style="stroke-width: 1; stroke-dasharray: none; stroke-linecap: butt; stroke-dashoffset: 0; stroke-linejoin: miter; stroke-miterlimit: 4; fill-rule: nonzero; opacity: 1; fill: url(#gradient-27); stroke: rgba(0, 0, 0, 0);" vector-effect="non-scaling-stroke" d="M 104.475 118.105 L 252.202 118.105 L 252.202 221.514 L 104.475 221.514 L 104.475 118.105 Z" stroke-linecap="round"/>
  <g transform="matrix(0.98, 0, 0, 0.63, 178.029999, 169.600006)" id="C3nTfnqyPuGRJ8OsgoK-W">
    <path style="stroke-width: 1; stroke-dasharray: none; stroke-linecap: butt; stroke-dashoffset: 0; stroke-linejoin: miter; stroke-miterlimit: 4; fill: rgb(255, 255, 255); fill-rule: nonzero; opacity: 1; stroke: rgba(0, 0, 0, 0);" vector-effect="non-scaling-stroke" d="M -66.667 -66.667 L 66.667 -66.667 L 66.667 66.667 L -66.667 66.667 L -66.667 -66.667 Z" stroke-linecap="round"/>
  </g>
</svg>