<?xml version="1.0" encoding="utf-8"?>
<svg version="1.1" width="640" height="640" viewBox="0 0 640 640" xmlns="http://www.w3.org/2000/svg">
  <desc>Created with Fabric.js 4.6.0</desc>
  <g transform="matrix(1 0 0 0.99 448.87 371.8)" id="HdDyvszPtXTCj6XdPqRXR">
    <path style="stroke: rgb(0,0,0); stroke-width: 1; stroke-dasharray: none; stroke-linecap: butt; stroke-dashoffset: 0; stroke-linejoin: miter; stroke-miterlimit: 4; fill: rgb(255,255,255); fill-rule: nonzero; opacity: 1;" vector-effect="non-scaling-stroke" transform=" translate(0, 0)" d="M -8.83333 -87.24999 C -8.83333 -87.24999 -8.83333 -87.47981 -8.83333 -43.85480999999999 C -8.83333 -0.2298099999999934 -8.83333 87.25001 -8.83333 87.25001 L 8.83334 87.25001 L 8.83334 -87.24999 z" stroke-linecap="round"/>
  </g>
  <g transform="matrix(1 0 0 1.02 92.8 368.36)" id="j4QZnRUR-oCDviPAB1XIp">
    <path style="stroke: rgb(0,0,0); stroke-width: 1; stroke-dasharray: none; stroke-linecap: butt; stroke-dashoffset: 0; stroke-linejoin: miter; stroke-miterlimit: 4; fill: rgb(255,255,255); fill-rule: nonzero; opacity: 1;" vector-effect="non-scaling-stroke" transform=" translate(0, 0)" d="M -8.83333 -87.24999 C -8.83333 -87.24999 -8.83333 -87.47981 -8.83333 -43.85480999999999 C -8.83333 -0.2298099999999934 -8.83333 87.25001 -8.83333 87.25001 L 8.83334 87.25001 L 8.83334 -87.24999 z" stroke-linecap="round"/>
  </g>
  <g transform="matrix(1.11 0 0 1.11 334.34 457.82)" id="D7vwP2KSY0IJ2yutVUFuu">
    <path style="stroke: rgb(0,0,0); stroke-width: 1; stroke-dasharray: none; stroke-linecap: butt; stroke-dashoffset: 0; stroke-linejoin: miter; stroke-miterlimit: 4; fill: rgb(255,255,255); fill-rule: nonzero; opacity: 1;" vector-effect="non-scaling-stroke" transform=" translate(0, 0)" d="M -298.86364 -0.25 L 298.86363 0.25" stroke-linecap="round"/>
  </g>
  <g transform="matrix(1 0 0 1 -199.87 441.69)" id="BPJ3ICoqXjxAGN0z2gMt4">
    <path style="stroke: rgb(0,0,0); stroke-width: 1; stroke-dasharray: none; stroke-linecap: round; stroke-dashoffset: 0; stroke-linejoin: round; stroke-miterlimit: 10; fill: none; fill-rule: nonzero; opacity: 1;" vector-effect="non-scaling-stroke" transform=" translate(199.87, -441.69)" d="M -199.8690926916222 442.07377627309916 Q -199.8680926916222 442.07377627309916 -199.8680926916222 441.6949883943113 L -199.8670926916222 441.3162005155234" stroke-linecap="round"/>
  </g>
  <g transform="matrix(1 0 0 1 458.71 260.53)" id="BCLE6T-Lcujo5FxzIJL96">
    <path style="stroke: rgb(0,0,0); stroke-width: 1; stroke-dasharray: none; stroke-linecap: butt; stroke-dashoffset: 0; stroke-linejoin: miter; stroke-miterlimit: 4; fill: rgb(255,255,255); fill-rule: nonzero; opacity: 1;" vector-effect="non-scaling-stroke" transform=" translate(0, 0)" d="M 0 0" stroke-linecap="round"/>
  </g>
  <g transform="matrix(1, 0, 0, 1, 175.320007, 234.460007)" id="xmiF4OWW7QF37tC6VMn7Q">
    <path style="stroke: rgb(0, 0, 0); stroke-width: 1; stroke-dasharray: none; stroke-linecap: butt; stroke-dashoffset: 0; stroke-linejoin: miter; stroke-miterlimit: 4; fill-rule: nonzero; opacity: 1; fill: rgb(255, 255, 255);" vector-effect="non-scaling-stroke" transform=" translate(0, 0)" d="M -4.81422 -12.69023 C -4.81422 -12.69023 -0.3731799999999996 34.78297 -31.460469999999997 36.00809 C -62.54776 37.233200000000004 37.45224 35.85495 37.45224 35.85495 C 37.45224 35.85495 10.896360000000005 40.873110000000004 11.127310000000005 -12.706559999999996 C 11.358260000000005 -66.28623999999999 -4.814219999999995 -12.690219999999997 -4.814219999999995 -12.690219999999997 z" stroke-linecap="round"/>
  </g>
  <g transform="matrix(1 0 0 1 331.52 235.02)" id="VeSX8WIFaSMyOVtotpFG5">
    <path style="stroke: rgb(0, 0, 0); stroke-width: 1; stroke-dasharray: none; stroke-linecap: butt; stroke-dashoffset: 0; stroke-linejoin: miter; stroke-miterlimit: 4; fill-rule: nonzero; opacity: 1; fill: rgb(255, 255, 255);" vector-effect="non-scaling-stroke" transform=" translate(0, 0)" d="M -4.81422 -12.69023 C -4.81422 -12.69023 -0.3731799999999996 34.78297 -31.460469999999997 36.00809 C -62.54776 37.233200000000004 37.45224 35.85495 37.45224 35.85495 C 37.45224 35.85495 10.896360000000005 40.873110000000004 11.127310000000005 -12.706559999999996 C 11.358260000000005 -66.28623999999999 -4.814219999999995 -12.690219999999997 -4.814219999999995 -12.690219999999997 z" stroke-linecap="round"/>
  </g>
  <g transform="matrix(1 0 0 1 458.21 256.47)" id="l3RZUDqKCLufBkX6KfMRB">
    <path style="stroke: rgb(0,0,0); stroke-width: 1; stroke-dasharray: none; stroke-linecap: butt; stroke-dashoffset: 0; stroke-linejoin: miter; stroke-miterlimit: 4; fill: rgb(255,255,255); fill-rule: nonzero; opacity: 1;" vector-effect="non-scaling-stroke" transform=" translate(0, 0)" d="M 0 0" stroke-linecap="round"/>
  </g>
  <g transform="matrix(0.86 0 0 0.44 418.07 348.89)" id="BV74lOUFkwoNwKXwTUJM3">
    <path style="stroke: rgb(0,0,0); stroke-width: 1; stroke-dasharray: none; stroke-linecap: butt; stroke-dashoffset: 0; stroke-linejoin: miter; stroke-miterlimit: 4; fill: rgb(255,255,255); fill-rule: nonzero; opacity: 1;" vector-effect="non-scaling-stroke" transform=" translate(0, 0)" d="M -24.52606 -1.07374 C -24.52606 -14.0261 -19.077730000000003 -24.52606 -12.35688 -24.52606 L 12.35689 -24.52606 L 12.35689 -24.52606 C 19.07774 -24.52606 24.52607 -14.026100000000001 24.52607 -1.0737400000000008 L 24.52607 6.943999999999999 L 24.52607 6.943999999999999 C 24.52607 16.6543 20.44149 24.526059999999998 15.40291 24.526059999999998 L -15.4029 24.526059999999998 L -15.4029 24.526059999999998 C -20.44148 24.526059999999998 -24.52606 16.6543 -24.52606 6.943999999999999 z" stroke-linecap="round"/>
  </g>
  <g transform="matrix(1 0 0 0.7 178.03 169.6)" id="T54F1gV4S_J3kooRX5T3_">
    <path style="stroke: rgb(0,0,0); stroke-width: 1; stroke-dasharray: none; stroke-linecap: butt; stroke-dashoffset: 0; stroke-linejoin: miter; stroke-miterlimit: 4; fill: rgb(255,255,255); fill-rule: nonzero; opacity: 1;" vector-effect="non-scaling-stroke" transform=" translate(0, 0)" d="M -73.86364 -73.86364 L 73.86363 -73.86364 L 73.86363 73.86363 L -73.86364 73.86363 z" stroke-linecap="round"/>
  </g>
  <g transform="matrix(0.98 0 0 0.63 178.03 169.6)" id="C3nTfnqyPuGRJ8OsgoK-W">
    <path style="stroke: rgb(0,0,0); stroke-width: 1; stroke-dasharray: none; stroke-linecap: butt; stroke-dashoffset: 0; stroke-linejoin: miter; stroke-miterlimit: 4; fill: rgb(255,255,255); fill-rule: nonzero; opacity: 1;" vector-effect="non-scaling-stroke" transform=" translate(0, 0)" d="M -66.66667 -66.66667 L 66.66666 -66.66667 L 66.66666 66.66666 L -66.66667 66.66666 z" stroke-linecap="round"/>
  </g>
  <g transform="matrix(1 0 0 1 418.41 378.05)" id="JrV4Oz-dsUMQsvdN9h_qB">
    <path style="stroke: rgb(0,0,0); stroke-width: 1; stroke-dasharray: none; stroke-linecap: butt; stroke-dashoffset: 0; stroke-linejoin: miter; stroke-miterlimit: 4; fill: rgb(255,255,255); fill-rule: nonzero; opacity: 1;" vector-effect="non-scaling-stroke" transform=" translate(0, 0)" d="M -0.34041 -17.77802 L 4.3838799999999996 -17.77802 L 4.3838799999999996 17.77802 L -0.3404100000000003 17.77802 L -4.38389 17.77802 L -4.38389 -17.77802 z" stroke-linecap="round"/>
  </g>
  <g transform="matrix(1 0 0 1 443.98 422.97)" id="7hkW15IKzkdQWpBzFXkdt">
    <path style="stroke: rgb(0,0,0); stroke-width: 1; stroke-dasharray: none; stroke-linecap: butt; stroke-dashoffset: 0; stroke-linejoin: miter; stroke-miterlimit: 4; fill: rgb(255,255,255); fill-rule: nonzero; opacity: 1;" vector-effect="non-scaling-stroke" transform=" translate(0, 0)" d="M -33.01075 -27.40475 L -17.95699 -27.40475 L -17.95699 -14.10063 C -17.95699 -14.10063 -18.07834 -11.27572 -17.09677 -8.829440000000002 C -16.26096 -6.746420000000002 -14.764589999999998 -5.145440000000002 -10.21505 -3.5630000000000015 C -0.3225800000000003 -0.12214000000000169 33.010760000000005 20.307969999999997 33.010760000000005 20.307969999999997 L 33.010760000000005 27.404739999999997 L -8.494619999999998 10.630549999999996 L 6.084400000000002 26.329469999999993 L 1.342500000000002 26.329469999999993 L -17.09677 10.630549999999994 L -24.68807 26.329469999999993 L -25.47475 26.329469999999993 L -26.94659 26.329469999999993" stroke-linecap="round"/>
  </g>
  <g transform="matrix(0.89 0 0 0.89 448.26 453.43)" id="ax_ZpPv2BTuwwdzeVwxcT">
    <path style="stroke: rgb(0,0,0); stroke-width: 1; stroke-dasharray: none; stroke-linecap: butt; stroke-dashoffset: 0; stroke-linejoin: miter; stroke-miterlimit: 4; fill: rgb(255,255,255); fill-rule: nonzero; opacity: 1;" vector-effect="non-scaling-stroke" transform=" translate(0, 0)" d="M 0 -4.41176 C 2.43529 -4.41176 4.41176 -2.43529 4.41176 0 C 4.41176 2.43529 2.43529 4.41176 0 4.41176 C -2.43529 4.41176 -4.41176 2.43529 -4.41176 0 C -4.41176 -2.43529 -2.43529 -4.41176 0 -4.41176 z" stroke-linecap="round"/>
  </g>
  <g transform="matrix(0.89 0 0 0.89 476.36 453.43)" id="qVjFM3MJT6-Hd43f0qgkH">
    <path style="stroke: rgb(0,0,0); stroke-width: 1; stroke-dasharray: none; stroke-linecap: butt; stroke-dashoffset: 0; stroke-linejoin: miter; stroke-miterlimit: 4; fill: rgb(255,255,255); fill-rule: nonzero; opacity: 1;" vector-effect="non-scaling-stroke" transform=" translate(0, 0)" d="M 0 -4.41176 C 2.43529 -4.41176 4.41176 -2.43529 4.41176 0 C 4.41176 2.43529 2.43529 4.41176 0 4.41176 C -2.43529 4.41176 -4.41176 2.43529 -4.41176 0 C -4.41176 -2.43529 -2.43529 -4.41176 0 -4.41176 z" stroke-linecap="round"/>
  </g>
  <g transform="matrix(0.89 0 0 0.89 418.41 453.43)" id="atF7GnfTZLPCCqqxV4tTu">
    <path style="stroke: rgb(0,0,0); stroke-width: 1; stroke-dasharray: none; stroke-linecap: butt; stroke-dashoffset: 0; stroke-linejoin: miter; stroke-miterlimit: 4; fill: rgb(255,255,255); fill-rule: nonzero; opacity: 1;" vector-effect="non-scaling-stroke" transform=" translate(0, 0)" d="M 0 -4.41176 C 2.43529 -4.41176 4.41176 -2.43529 4.41176 0 C 4.41176 2.43529 2.43529 4.41176 0 4.41176 C -2.43529 4.41176 -4.41176 2.43529 -4.41176 0 C -4.41176 -2.43529 -2.43529 -4.41176 0 -4.41176 z" stroke-linecap="round"/>
  </g>
  <g transform="matrix(0.89 0 0 0.89 388.64 453.43)" id="azDGp4CpjG5mzx8RZ1ZBq">
    <path style="stroke: rgb(0,0,0); stroke-width: 1; stroke-dasharray: none; stroke-linecap: butt; stroke-dashoffset: 0; stroke-linejoin: miter; stroke-miterlimit: 4; fill: rgb(255,255,255); fill-rule: nonzero; opacity: 1;" vector-effect="non-scaling-stroke" transform=" translate(0, 0)" d="M 0 -4.41176 C 2.43529 -4.41176 4.41176 -2.43529 4.41176 0 C 4.41176 2.43529 2.43529 4.41176 0 4.41176 C -2.43529 4.41176 -4.41176 2.43529 -4.41176 0 C -4.41176 -2.43529 -2.43529 -4.41176 0 -4.41176 z" stroke-linecap="round"/>
  </g>
  <g transform="matrix(1 0 0 1 367.6 257.01)" id="fJWJP7Yot9EnnbLHi_sz4">
    <path style="stroke: rgb(0,0,0); stroke-width: 1; stroke-dasharray: none; stroke-linecap: butt; stroke-dashoffset: 0; stroke-linejoin: miter; stroke-miterlimit: 4; fill: rgb(255,255,255); fill-rule: nonzero; opacity: 1;" vector-effect="non-scaling-stroke" transform=" translate(0, 0)" d="M 26.27675 -16.83991 C 26.27675 -16.83991 23.13799 8.72993 -6.91872 5.51632 C -11.044910000000002 5.075150000000001 -17.079349999999998 4.91221 -20.436619999999998 5.51632 C -41.53497 9.312750000000001 -44.77715 24.41747 -44.77715 24.41747 L 32.16047 18.12083 L 21.039319999999996 14.036930000000002 C 21.039319999999996 14.036930000000002 28.878399999999996 10.40313 31.026249999999997 7.857820000000002 C 36.19416 1.7335900000000022 48.14449 -8.993009999999996 43.87133 -18.741169999999997 C 37.82218 -32.54079 26.27675 -16.839899999999997 26.27675 -16.839899999999997 z" stroke-linecap="round"/>
  </g>
  <g transform="matrix(-1 0 0 1 391.7 422.97)" id="E3Gx5ZXkYaN3fsDZPMTQq">
    <path style="stroke: rgb(0,0,0); stroke-width: 1; stroke-dasharray: none; stroke-linecap: butt; stroke-dashoffset: 0; stroke-linejoin: miter; stroke-miterlimit: 4; fill: rgb(255,255,255); fill-rule: nonzero; opacity: 1;" vector-effect="non-scaling-stroke" transform=" translate(0, 0)" d="M -32.12409 -27.40475 C -28.360650000000003 -27.40475 -18.84366 -27.40475 -18.84366 -27.40475 L -18.84366 -14.10063 C -18.84366 -14.10063 -18.96501 -11.27572 -17.98344 -8.829440000000002 C -17.147630000000003 -6.746420000000002 -15.65126 -5.145440000000002 -11.101720000000002 -3.5630000000000015 C -1.2092500000000026 -0.12214000000000169 32.12409 20.307969999999997 32.12409 20.307969999999997 L 32.12409 27.404739999999997 L -9.38129 10.630549999999996 L 5.19773 26.329469999999993 L 0.45582999999999974 26.329469999999993 L -17.98344 10.630549999999994 L -25.574740000000002 26.329469999999993 L -26.361420000000003 26.329469999999993" stroke-linecap="round"/>
  </g>
  <g transform="matrix(1 0 0 1 271.09 277.68)" id="zfqcIyVmOr6byrrl2UfpR">
    <path style="stroke: rgb(0,0,0); stroke-width: 1; stroke-dasharray: none; stroke-linecap: butt; stroke-dashoffset: 0; stroke-linejoin: miter; stroke-miterlimit: 4; fill: rgb(255,255,255); fill-rule: nonzero; opacity: 1;" vector-effect="non-scaling-stroke" transform=" translate(0, 0)" d="M -187.62121 7.57576 L 187.62121 7.57576 L 187.62121 -7.57576 L -187.62121 -7.57576 z" stroke-linecap="round"/>
  </g>
  <g transform="matrix(1 0 0 0.7 334.24 169.67)" id="i030sItWsmjbDKDEMfquk">
    <path style="stroke: rgb(0,0,0); stroke-width: 1; stroke-dasharray: none; stroke-linecap: butt; stroke-dashoffset: 0; stroke-linejoin: miter; stroke-miterlimit: 4; fill: rgb(255,255,255); fill-rule: nonzero; opacity: 1;" vector-effect="non-scaling-stroke" transform=" translate(0, 0)" d="M -73.86364 -73.86364 L 73.86363 -73.86364 L 73.86363 73.86363 L -73.86364 73.86363 z" stroke-linecap="round"/>
  </g>
  <g transform="matrix(1.21 0.15 -0.13 1.09 354.4 410.69)" id="h6diBxqxJaJWUGFK_hdEu">
    <path style="stroke: rgb(0,0,0); stroke-width: 1; stroke-dasharray: none; stroke-linecap: butt; stroke-dashoffset: 0; stroke-linejoin: miter; stroke-miterlimit: 4; fill: rgb(255,255,255); fill-rule: nonzero; opacity: 1;" vector-effect="non-scaling-stroke" transform=" translate(0, 0)" d="M -1.12263 9.68709 L 7.7592799999999995 4.88577 L 3.3328099999999994 -5.21357 L -4.102760000000001 -9.68708 L -7.75928 -5.21357 z" stroke-linecap="round"/>
  </g>
  <g transform="matrix(0.89 0 0 0.89 360.68 453.43)" id="zieb-axZburiXdbdrccOy">
    <path style="stroke: rgb(0,0,0); stroke-width: 1; stroke-dasharray: none; stroke-linecap: butt; stroke-dashoffset: 0; stroke-linejoin: miter; stroke-miterlimit: 4; fill: rgb(255,255,255); fill-rule: nonzero; opacity: 1;" vector-effect="non-scaling-stroke" transform=" translate(0, 0)" d="M 0 -4.41176 C 2.43529 -4.41176 4.41176 -2.43529 4.41176 0 C 4.41176 2.43529 2.43529 4.41176 0 4.41176 C -2.43529 4.41176 -4.41176 2.43529 -4.41176 0 C -4.41176 -2.43529 -2.43529 -4.41176 0 -4.41176 z" stroke-linecap="round"/>
  </g>
  <g transform="matrix(0.98 0 0 0.63 334.24 169.67)" id="nM2ujG-yYQK8MK7LOklJZ">
    <path style="stroke: rgb(0,0,0); stroke-width: 1; stroke-dasharray: none; stroke-linecap: butt; stroke-dashoffset: 0; stroke-linejoin: miter; stroke-miterlimit: 4; fill: rgb(255,255,255); fill-rule: nonzero; opacity: 1;" vector-effect="non-scaling-stroke" transform=" translate(0, 0)" d="M -66.66667 -66.66667 L 66.66666 -66.66667 L 66.66666 66.66666 L -66.66667 66.66666 z" stroke-linecap="round"/>
  </g>
  <g transform="matrix(1 0 0 1 345.16 366.93)" id="g_zHA99m7YKMGKZ3tc6a_">
    <path style="stroke: rgb(0,0,0); stroke-width: 1; stroke-dasharray: none; stroke-linecap: butt; stroke-dashoffset: 0; stroke-linejoin: miter; stroke-miterlimit: 4; fill: rgb(255,255,255); fill-rule: nonzero; opacity: 1;" vector-effect="non-scaling-stroke" transform=" translate(0, 0)" d="M 5.14209 -17.3009 L 19.94503 35.71428 L -2.8718400000000024 43.37979 L -19.945010000000003 -18.04152 L -7.695960000000003 -43.3798 L 8.277979999999998 -43.3798 z" stroke-linecap="round"/>
  </g>
  <g transform="matrix(1 0 0 1 460.08 170.99)" id="Z8Il61dwwEoLKBD7reNAY">
    <path style="stroke: rgb(0,0,0); stroke-width: 1; stroke-dasharray: none; stroke-linecap: butt; stroke-dashoffset: 0; stroke-linejoin: miter; stroke-miterlimit: 4; fill: rgb(255,255,255); fill-rule: nonzero; opacity: 1;" vector-effect="non-scaling-stroke" transform=" translate(0, 0)" d="M -15.7468 -34.23095 C -15.7468 -34.23095 -25.08737 -8.07978 -16.7468 6.689990000000002 C -15.686630000000001 8.567370000000002 -8.02971 4.330400000000002 -7.39387 5.968700000000002 C -3.0274099999999997 17.21927 -14.50202 28.82881 -14.50202 28.82881 L 9.92742 34.230940000000004 L 17.41102 28.828810000000004 C 17.41102 28.828810000000004 10.28203 23.692940000000004 12.409690000000001 15.064100000000005 C 14.537350000000002 6.435260000000005 20.21111 -31.25369 20.21111 -31.25369 z" stroke-linecap="round"/>
  </g>
  <g transform="matrix(1.17 0 0 1 295.27 415.72)" id="5UY4AwiylxqVy0kWxC0cc">
    <path style="stroke: rgb(0,0,0); stroke-width: 1; stroke-dasharray: none; stroke-linecap: butt; stroke-dashoffset: 0; stroke-linejoin: miter; stroke-miterlimit: 4; fill: rgb(255,255,255); fill-rule: nonzero; opacity: 1;" vector-effect="non-scaling-stroke" transform=" translate(0, 0)" d="M -5.13245 -1.71806 L -9.10596 14.07285 L 2.81457 14.07285 L 5.35726 -1.7180599999999995 L 9.10596 -14.07284 z" stroke-linecap="round"/>
  </g>
  <g transform="matrix(1 0 0 1 356.93 349.63)" id="EmXWdi2-X8W09ZTr-qdh9">
    <path style="stroke: rgb(0,0,0); stroke-width: 1; stroke-dasharray: none; stroke-linecap: butt; stroke-dashoffset: 0; stroke-linejoin: miter; stroke-miterlimit: 4; fill: rgb(255,255,255); fill-rule: nonzero; opacity: 1;" vector-effect="non-scaling-stroke" transform=" translate(0, 0)" d="M 43.14929 -50.06162 L -10.801389999999998 -50.06162 C -10.801389999999998 -50.06162 -35.54007 -52.50064 -50.87108 -8.598209999999995 C -66.20209 35.304230000000004 -74.56446 63.87566000000001 -74.56446 63.87566000000001 L -48.78049 63.87566000000001 L -22.68404 -8.598209999999995 C -22.68404 -8.598209999999995 -17.421599999999998 -20.793329999999994 -2.4390199999999993 -14.521549999999994 C 12.543560000000001 -8.249769999999994 61.483380000000004 -12.122549999999993 61.483380000000004 -12.122549999999993 L 74.56446 -39.60865999999999 L 71.08014 -55.28809999999999 L 53.54632 -63.875659999999996 z" stroke-linecap="round"/>
  </g>
  <g transform="matrix(1 0 0 1 446.34 253.66)" id="dikyFB-Nwx2Jy39GalZ8c">
    <path style="stroke: rgb(0,0,0); stroke-width: 1; stroke-dasharray: none; stroke-linecap: butt; stroke-dashoffset: 0; stroke-linejoin: miter; stroke-miterlimit: 4; fill: rgb(255,255,255); fill-rule: nonzero; opacity: 1;" vector-effect="non-scaling-stroke" transform=" translate(0, 0)" d="M -23.50209 -49.0253 C -29.947139999999997 -45.15204 -33.317409999999995 -39.404270000000004 -37.73234 -34.71603 C -48.27647 -23.519150000000003 -53.27116 -14.084080000000004 -53.27116 -14.084080000000004 L -32.81244 2.3114399999999975 L -46.262640000000005 45.466719999999995 C -46.262640000000005 45.466719999999995 -14.183760000000007 60.52553999999999 6.350999999999992 50.25816 C 26.88575999999999 39.99078 52.99849999999999 -45.72852000000001 52.99849999999999 -45.72852000000001 C 52.99849999999999 -45.72852000000001 57.135729999999995 -53.78462000000001 33.17850999999999 -53.78462000000001 C 28.65124999999999 -53.78462000000001 25.76413999999999 -52.47400000000001 23.82649999999999 -52.31137000000001 C 17.88475999999999 -51.81266000000001 20.871089999999988 -52.03214000000001 12.86926999999999 -52.31137000000001 C 9.67194999999999 -52.42294000000001 5.73961999999999 -53.30914000000001 -2.5019300000000104 -53.78462000000001 C -9.68093000000001 -54.19879000000001 -17.98476000000001 -52.341040000000014 -23.502080000000014 -49.02531000000001 z" stroke-linecap="round"/>
  </g>
  <g transform="matrix(1 0 0 1 479.52 279.1)" id="1xdlW30MZsaW1laM9HI2k">
    <path style="stroke: rgb(0,0,0); stroke-width: 1; stroke-dasharray: none; stroke-linecap: butt; stroke-dashoffset: 0; stroke-linejoin: miter; stroke-miterlimit: 4; fill: rgb(255,255,255); fill-rule: nonzero; opacity: 1;" vector-effect="non-scaling-stroke" transform=" translate(0, 0)" d="M -10.20116 -70.58428 L 62.200959999999995 -70.58428 C 62.200959999999995 -70.58428 64.49901 -70.77543 65.8322 -70.58428 C 68.17988 -70.24768 70.90209 -70.03435 72.0056 -65.10127 C 72.94665 -60.89443 71.68198 -52.822720000000004 67.75255 -43.473389999999995 C 56.5987 -16.934929999999994 40.26338 41.42785000000001 36.80184 47.19708 C 33.3403 52.96631 30.083199999999998 71.77221 8.16012 70.61837 C -13.76296 69.46452 -72.3024 70.61837 -72.3024 70.61837 L -48.99958000000001 34.62681" stroke-linecap="round"/>
  </g>
  <g transform="matrix(1 0 0 1 406.53 279.07)" id="5kZJgfrwGnjuMdwzVtjjL">
    <path style="stroke: rgb(0,0,0); stroke-width: 1; stroke-dasharray: none; stroke-linecap: butt; stroke-dashoffset: 0; stroke-linejoin: miter; stroke-miterlimit: 4; fill: rgb(255,255,255); fill-rule: nonzero; opacity: 1;" vector-effect="non-scaling-stroke" transform=" translate(0, 0)" d="M 61.57849 -70.60193 C 60.417550000000006 -70.45268 57.106860000000005 -69.80881 55.61543 -68.32148 C 51.81523000000001 -64.53169 48.561960000000006 -57.17837999999999 48.561960000000006 -57.17837999999999 L 29.622570000000007 -1.3753499999999903 L 14.471050000000007 40.94481000000001 C 14.471050000000007 40.94481000000001 12.950470000000006 46.75765000000001 7.675490000000007 50.38039000000001 C 4.563430000000007 52.517690000000016 0.14462000000000685 53.451200000000014 -6.039649999999993 53.17010000000001 C -22.70631999999999 52.412520000000015 -48.40774 53.17010000000001 -48.40774 53.17010000000001 C -48.40774 53.17010000000001 -55.79559 52.741380000000014 -60.95088 54.590800000000016 C -64.31051 55.79604000000002 -66.47534 58.21545000000002 -65.87752 61.503430000000016 C -65.45993 63.80020000000002 -64.37421 66.16458000000002 -62.399240000000006 67.45315000000002 C -57.20846 70.83989000000003 -48.40773000000001 70.59434000000002 -48.40773000000001 70.59434000000002 L -6.039640000000006 70.59434000000002 C -6.039640000000006 70.59434000000002 4.541199999999995 71.59301000000002 14.471059999999994 67.45315000000002 C 20.629289999999994 64.88573000000002 26.432729999999992 59.54979000000002 29.622579999999992 53.17009000000002 C 37.95590999999999 36.50342000000002 64.47106 -52.132939999999984 64.47106 -52.132939999999984 C 64.47106 -52.132939999999984 66.10364999999999 -57.32362999999998 65.96871999999999 -62.09549999999999 C 65.83084 -66.97155999999998 63.21951999999999 -71.42245999999999 61.57849999999999 -70.60194999999999 C 61.25755999999999 -70.44147999999998 62.403789999999994 -70.70804999999999 61.57849999999999 -70.60194999999999 z" stroke-linecap="round"/>
  </g>
  <g transform="matrix(1 0 0 1 275.55 443.42)" id="22psasxEawBaxUaCL-vTm">
    <path style="stroke: rgb(0,0,0); stroke-width: 1; stroke-dasharray: none; stroke-linecap: butt; stroke-dashoffset: 0; stroke-linejoin: miter; stroke-miterlimit: 4; fill: rgb(255,255,255); fill-rule: nonzero; opacity: 1;" vector-effect="non-scaling-stroke" transform=" translate(0, 0)" d="M -24.89146 13.62015 L 24.89146 -2.6017799999999998 L 22.865409999999997 -13.62015 L -13.07752 1.82855" stroke-linecap="round"/>
  </g>
  <g transform="matrix(1 0 0 1.01 274.76 443.83)" id="KWJMVNAMZjWHpu4aAPqhk">
    <path style="stroke: rgb(0,0,0); stroke-width: 1; stroke-dasharray: none; stroke-linecap: butt; stroke-dashoffset: 0; stroke-linejoin: miter; stroke-miterlimit: 4; fill: rgb(255,255,255); fill-rule: nonzero; opacity: 1;" vector-effect="non-scaling-stroke" transform=" translate(0, 0)" d="M 24.28459 -13.37015 L 9.321370000000002 -13.37015 C 9.321370000000002 -13.37015 -21.96671 -2.52388 -24.28459 13.37016" stroke-linecap="round"/>
  </g>
  <g transform="matrix(0.95 -0.31 0.31 0.95 347.16 437)" id="B11Mj87MLgQ7IJPkJfZiu">
    <path style="stroke: rgb(0,0,0); stroke-width: 1; stroke-dasharray: none; stroke-linecap: butt; stroke-dashoffset: 0; stroke-linejoin: miter; stroke-miterlimit: 4; fill: rgb(255,255,255); fill-rule: nonzero; opacity: 1;" vector-effect="non-scaling-stroke" transform=" translate(0, 0)" d="M -24.89146 13.62015 L 24.89146 -2.6017799999999998 C 24.89146 -2.6017799999999998 24.33475 -5.62935 23.828239999999997 -8.383949999999999 C 23.32173 -11.138539999999999 22.865409999999997 -13.620149999999999 22.865409999999997 -13.620149999999999" stroke-linecap="round"/>
  </g>
  <g transform="matrix(0.95 -0.31 0.31 0.96 346.55 437.53)" id="ZM156mbsiXErQNwgzrpql">
    <path style="stroke: rgb(0,0,0); stroke-width: 1; stroke-dasharray: none; stroke-linecap: butt; stroke-dashoffset: 0; stroke-linejoin: miter; stroke-miterlimit: 4; fill: rgb(255,255,255); fill-rule: nonzero; opacity: 1;" vector-effect="non-scaling-stroke" transform=" translate(0, 0)" d="M 24.28459 -13.37015 L 9.321370000000002 -13.37015 C 9.321370000000002 -13.37015 -21.96671 -2.52388 -24.28459 13.37016" stroke-linecap="round"/>
  </g>
  <g transform="matrix(1 0 0 1 443.84 199.31)" id="3CluZQKYxypEHFegWwbFJ">
    <path style="stroke: rgb(0,0,0); stroke-width: 1; stroke-dasharray: none; stroke-linecap: butt; stroke-dashoffset: 0; stroke-linejoin: miter; stroke-miterlimit: 4; fill: rgb(255,255,255); fill-rule: nonzero; opacity: 1;" vector-effect="non-scaling-stroke" transform=" translate(0, 0)" d="M 0 0" stroke-linecap="round"/>
  </g>
  <g transform="matrix(1 0 0 1 470.51 149.17)" id="e8GqWkoTfJK_d-XiPAn09">
    <path style="stroke: rgb(0,0,0); stroke-width: 1; stroke-dasharray: none; stroke-linecap: butt; stroke-dashoffset: 0; stroke-linejoin: miter; stroke-miterlimit: 4; fill: rgb(255,255,255); fill-rule: nonzero; opacity: 1;" vector-effect="non-scaling-stroke" transform=" translate(0, 0)" d="M 2.49441 36.38219 C 2.49441 36.38219 -0.30100000000000016 35.78239 -2.2766500000000005 33.868590000000005 C -3.9357100000000003 32.261480000000006 -5.17672 28.516720000000007 -5.39034 27.453770000000006 C -6.960990000000001 19.638520000000007 -4.55478 14.750230000000006 -4.55478 14.750230000000006 C -4.55478 14.750230000000006 -4.62267 14.145300000000006 -3.72709 13.288300000000005 C -2.45445 12.070470000000006 0.059779999999999944 10.343610000000005 1.4303899999999996 9.120240000000006 C 3.1157699999999995 7.615920000000006 3.2387099999999993 6.907630000000006 3.1364699999999996 6.498660000000006 C 3.0448999999999997 6.1323600000000065 3.2389699999999997 4.595610000000006 3.1364699999999996 3.5383300000000064 C 3.0433099999999995 2.5774400000000064 1.6276599999999997 2.1497600000000063 0.8138299999999998 1.7605700000000064 C 0.13810999999999984 1.4374300000000064 -0.3763400000000001 1.7562200000000063 -2.27665 2.7236500000000063 C -8.98397 6.138280000000006 -9.83004 0.28463000000000616 -11.4154 -3.0080599999999933 C -12.06494 -4.357109999999993 -14.64526 -7.172189999999993 -18.47304 -9.367229999999992 C -21.12573 -10.888409999999991 -24.947960000000002 -11.541369999999992 -26.7866 -13.557499999999992 C -28.77044 -15.732849999999992 -29.86553 -18.217439999999993 -28.48319 -21.056839999999994 C -23.97099 -30.325129999999994 -13.97099 -34.105619999999995 -3.7270900000000005 -35.934889999999996 C 0.4283399999999995 -36.67693 6.715529999999999 -36.523689999999995 12.19678 -35.26504 C 17.02968 -34.15527 20.290390000000002 -32.073499999999996 22.82137 -30.70911 C 24.21508 -29.95779 30.990140000000004 -21.66226 28.59315 -7.742619999999999 C 28.464190000000002 -6.993719999999999 28.36693 -6.303439999999998 28.266450000000003 -5.630089999999999 C 27.990180000000002 -3.778719999999999 27.689570000000003 -2.055319999999999 26.63877 0.4065600000000007 C 24.51482 5.382670000000001 21.81811 9.943570000000001 19.602220000000003 14.029150000000001 C 12.911970000000004 26.36436 6.645790000000003 34.36677 1.9737300000000033 36.38217" stroke-linecap="round"/>
  </g>
  <g transform="matrix(1 0 0 1 177.5 212.41)" id="8uE_Qdfmcmr4GHRAJG_oO">
    <path style="stroke: rgb(0,0,0); stroke-width: 1; stroke-dasharray: none; stroke-linecap: butt; stroke-dashoffset: 0; stroke-linejoin: miter; stroke-miterlimit: 4; fill: rgb(255,255,255); fill-opacity: 0; fill-rule: nonzero; opacity: 1;" vector-effect="non-scaling-stroke" transform=" translate(0, 0)" d="M 0 0" stroke-linecap="round"/>
  </g>
</svg>