<?xml version="1.0" encoding="utf-8"?>
<!-- Generator: Adobe Illustrator 25.4.1, SVG Export Plug-In . SVG Version: 6.00 Build 0)  -->
<svg version="1.1" xmlns="http://www.w3.org/2000/svg" xmlns:xlink="http://www.w3.org/1999/xlink" x="0px" y="0px"
	 viewBox="0 0 288.85 245.81" style="enable-background:new 0 0 288.85 245.81;" xml:space="preserve">
<style type="text/css">
	.st0{opacity:0.9;}
	.st1{opacity:5.893000e-03;}
	.st2{fill:#FFFFFF;}
	.st3{opacity:5.947000e-03;}
	.st4{opacity:0.0119;}
	.st5{opacity:0.012;}
	.st6{opacity:0.018;}
	.st7{opacity:0.0182;}
	.st8{opacity:0.0243;}
	.st9{opacity:0.0245;}
	.st10{opacity:0.0307;}
	.st11{opacity:0.031;}
	.st12{opacity:0.0373;}
	.st13{opacity:0.0379;}
	.st14{opacity:0.0444;}
	.st15{opacity:0.0454;}
	.st16{opacity:0.0546;}
	.st17{opacity:0.7;}
	.st18{fill:#E6007E;}
	.st19{opacity:0.6;}
	.st20{fill:#9EC3E8;}
	.st21{fill:url(#SVGID_1_);}
	.st22{fill:url(#SVGID_00000060744705864367460820000009448420698504371609_);}
	.st23{fill:url(#SVGID_00000096743615950495497670000018273380606028561065_);}
	.st24{fill:url(#SVGID_00000049932690124012460450000000903992330855760283_);}
	.st25{opacity:0.1;}
	.st26{opacity:0.5;}
	.st27{opacity:0.3;}
</style>
<g id="Neon">
	<g class="st0">
		<g class="st1">
			<path class="st2" d="M193.87,245.81c-7.39,0-14.63-2.76-20.19-7.9L29.59,104.75c-7.94-7.33-11.27-18.39-8.71-28.89
				c2.56-10.5,10.61-18.78,21.03-21.65l199.97-54.9c10.42-2.86,21.57,0.15,29.13,7.87c7.56,7.72,10.34,18.93,7.26,29.29
				l-55.89,188.06c-2.93,9.85-10.73,17.49-20.64,20.21C199.14,245.46,196.49,245.81,193.87,245.81z M109.31,97.41l69.64,64.36
				l27.02-90.9L109.31,97.41z"/>
		</g>
		<g class="st3">
			<path class="st2" d="M193.87,244.06c-6.96,0-13.77-2.59-19.01-7.44L30.78,103.47c-7.47-6.9-10.61-17.31-8.2-27.19
				c2.41-9.88,9.98-17.68,19.79-20.37L242.34,1c9.81-2.69,20.3,0.14,27.42,7.41c7.12,7.27,9.73,17.82,6.83,27.57L220.7,224.03
				c-2.75,9.27-10.1,16.46-19.43,19.02C198.83,243.73,196.34,244.06,193.87,244.06z M105.81,96.56l74.02,68.41l28.71-96.62
				L105.81,96.56z"/>
		</g>
		<g class="st4">
			<path class="st2" d="M193.87,242.31c-6.52,0-12.91-2.43-17.82-6.97L31.97,102.18c-7-6.47-9.94-16.23-7.69-25.49
				c2.26-9.26,9.36-16.57,18.55-19.1L242.8,2.69c9.19-2.52,19.03,0.13,25.71,6.95c6.67,6.81,9.12,16.71,6.41,25.84l-55.89,188.06
				c-2.58,8.69-9.47,15.43-18.21,17.84C198.52,242,196.18,242.31,193.87,242.31z M102.31,95.7l78.4,72.46l30.41-102.33L102.31,95.7z
				"/>
		</g>
		<g class="st5">
			<path class="st2" d="M193.87,240.56c-6.09,0-12.04-2.27-16.63-6.51L33.16,100.9c-6.54-6.04-9.28-15.15-7.17-23.79
				c2.11-8.65,8.74-15.47,17.32-17.83l199.97-54.9c8.58-2.36,17.76,0.13,23.99,6.48c6.23,6.36,8.52,15.59,5.98,24.12l-55.89,188.06
				c-2.41,8.11-8.84,14.41-17,16.65C198.21,240.27,196.03,240.56,193.87,240.56z M98.81,94.85l82.78,76.5L213.7,63.31L98.81,94.85z"
				/>
		</g>
		<g class="st6">
			<path class="st2" d="M193.86,238.81c-5.65,0-11.18-2.11-15.44-6.04L34.34,99.61c-6.07-5.61-8.62-14.07-6.66-22.09
				c1.96-8.03,8.11-14.36,16.08-16.55l199.97-54.9c7.97-2.19,16.5,0.12,22.28,6.02c5.78,5.9,7.91,14.48,5.55,22.4l-55.89,188.06
				c-2.24,7.53-8.21,13.38-15.78,15.46C197.9,238.54,195.87,238.81,193.86,238.81z M95.31,94l87.16,80.55l33.81-113.76L95.31,94z"/>
		</g>
		<g class="st7">
			<path class="st2" d="M193.86,237.06c-5.22,0-10.32-1.95-14.25-5.58L35.53,98.33c-5.6-5.18-7.96-12.98-6.15-20.39
				c1.81-7.41,7.49-13.26,14.84-15.28l199.97-54.9c7.35-2.02,15.23,0.11,20.56,5.56c5.34,5.45,7.3,13.36,5.13,20.68l-55.89,188.06
				c-2.07,6.95-7.58,12.35-14.57,14.27C197.59,236.81,195.72,237.06,193.86,237.06z M91.81,93.14l91.54,84.6l35.51-119.48
				L91.81,93.14z"/>
		</g>
		<g class="st8">
			<path class="st2" d="M193.86,235.31c-4.78,0-9.46-1.78-13.07-5.11L36.72,97.04c-5.13-4.75-7.29-11.9-5.64-18.69
				c1.66-6.79,6.86-12.15,13.61-14.01l199.97-54.9c6.74-1.85,13.96,0.1,18.85,5.09c4.89,5,6.69,12.25,4.7,18.95l-55.89,188.06
				c-1.89,6.37-6.94,11.32-13.36,13.08C197.28,235.08,195.56,235.31,193.86,235.31z M88.3,92.29l95.92,88.64l37.21-125.19
				L88.3,92.29z"/>
		</g>
		<g class="st9">
			<path class="st2" d="M193.86,233.56c-4.35,0-8.6-1.62-11.88-4.65L37.91,95.76c-4.67-4.31-6.63-10.82-5.13-17
				c1.5-6.18,6.24-11.05,12.37-12.73l199.97-54.9c6.13-1.68,12.69,0.09,17.14,4.63c4.45,4.54,6.08,11.14,4.27,17.23l-55.89,188.06
				c-1.72,5.79-6.31,10.29-12.14,11.89C196.97,233.35,195.41,233.56,193.86,233.56z M84.8,91.44l100.29,92.69L224,53.22L84.8,91.44z
				"/>
		</g>
		<g class="st10">
			<path class="st2" d="M193.86,231.81c-3.91,0-7.74-1.46-10.69-4.18L39.09,94.47c-4.2-3.88-5.97-9.74-4.61-15.3
				c1.35-5.56,5.62-9.94,11.13-11.46l199.97-54.9C251.1,11.3,257,12.89,261,16.98c4,4.09,5.47,10.02,3.84,15.51l-55.89,188.06
				c-1.55,5.21-5.68,9.26-10.93,10.7C196.66,231.62,195.25,231.81,193.86,231.81z M81.3,90.58l104.67,96.73l40.6-136.62L81.3,90.58z
				"/>
		</g>
		<g class="st11">
			<path class="st2" d="M193.86,230.06c-3.48,0-6.88-1.3-9.5-3.72L40.28,93.19c-3.73-3.45-5.3-8.66-4.1-13.6
				c1.2-4.94,4.99-8.84,9.89-10.19l199.97-54.9c4.91-1.35,10.15,0.07,13.71,3.71c3.56,3.63,4.87,8.91,3.42,13.78l-55.89,188.06
				c-1.38,4.64-5.05,8.23-9.71,9.51C196.35,229.89,195.1,230.06,193.86,230.06z M77.8,89.73l109.05,100.78l42.3-142.34L77.8,89.73z"
				/>
		</g>
		<g class="st12">
			<path class="st2" d="M193.86,228.31c-3.04,0-6.02-1.13-8.32-3.25L41.47,91.9c-3.27-3.02-4.64-7.57-3.59-11.9
				c1.05-4.32,4.37-7.73,8.66-8.91l199.97-54.9c4.29-1.18,8.88,0.06,12,3.24c3.11,3.18,4.26,7.8,2.99,12.06l-55.89,188.06
				c-1.21,4.06-4.42,7.2-8.5,8.32C196.04,228.16,194.95,228.31,193.86,228.31z M74.3,88.88L187.73,193.7l44-148.05L74.3,88.88z"/>
		</g>
		<g class="st13">
			<path class="st2" d="M193.86,226.56c-2.61,0-5.16-0.97-7.13-2.79L42.66,90.62c-2.8-2.59-3.98-6.49-3.08-10.2
				c0.9-3.71,3.74-6.63,7.42-7.64l199.97-54.9c3.68-1.01,7.61,0.05,10.28,2.78c2.67,2.73,3.65,6.68,2.56,10.34l-55.89,188.06
				c-1.03,3.48-3.79,6.17-7.29,7.13C195.73,226.43,194.79,226.56,193.86,226.56z M70.79,88.02L188.6,196.9l45.7-153.77L70.79,88.02z
				"/>
		</g>
		<g class="st14">
			<path class="st2" d="M193.86,224.81c-2.17,0-4.3-0.81-5.94-2.32L43.85,89.33c-2.33-2.16-3.32-5.41-2.56-8.5
				c0.75-3.09,3.12-5.52,6.18-6.37l199.97-54.9c3.06-0.84,6.34,0.05,8.57,2.32c2.22,2.27,3.04,5.57,2.14,8.61l-55.89,188.06
				c-0.86,2.9-3.16,5.15-6.07,5.95C195.42,224.7,194.64,224.81,193.86,224.81z M67.29,87.17l122.19,112.92l47.4-159.48L67.29,87.17z
				"/>
		</g>
		<g class="st15">
			<path class="st2" d="M193.86,223.06c-1.74,0-3.44-0.65-4.75-1.86L45.03,88.04c-1.87-1.73-2.65-4.33-2.05-6.8
				c0.6-2.47,2.5-4.42,4.95-5.09l199.97-54.9c2.45-0.67,5.08,0.04,6.85,1.85c1.78,1.82,2.43,4.46,1.71,6.89l-55.89,188.06
				c-0.69,2.32-2.53,4.12-4.86,4.76C195.11,222.97,194.48,223.06,193.86,223.06z M63.79,86.32l126.57,116.97l49.09-165.2
				L63.79,86.32z"/>
		</g>
		<g class="st16">
			<path class="st2" d="M193.86,221.31c-1.3,0-2.58-0.49-3.56-1.39L46.22,86.76c-1.4-1.29-1.99-3.25-1.54-5.1
				c0.45-1.85,1.87-3.31,3.71-3.82l199.97-54.9c1.84-0.5,3.81,0.03,5.14,1.39c1.33,1.36,1.82,3.34,1.28,5.17L198.9,217.55
				c-0.52,1.74-1.89,3.09-3.64,3.57C194.79,221.24,194.33,221.31,193.86,221.31z M60.29,85.46l130.94,121.01l50.79-170.91
				L60.29,85.46z"/>
		</g>
		<g>
			<path class="st2" d="M193.86,219.56c-0.87,0-1.72-0.32-2.38-0.93L47.41,85.47c-0.93-0.86-1.33-2.16-1.02-3.4
				c0.3-1.24,1.25-2.21,2.47-2.55l199.97-54.9c1.22-0.34,2.54,0.02,3.43,0.93c0.89,0.91,1.22,2.23,0.85,3.45l-55.89,188.06
				c-0.34,1.16-1.26,2.06-2.43,2.38C194.48,219.52,194.17,219.56,193.86,219.56z M56.79,84.61l135.32,125.06L244.6,33.04
				L56.79,84.61z"/>
		</g>
		<g>
			<path class="st2" d="M193.86,217.22c-0.29,0-0.57-0.11-0.79-0.31L48.99,83.76c-0.31-0.29-0.44-0.72-0.34-1.13
				c0.1-0.41,0.42-0.74,0.83-0.85l199.97-54.9c0.41-0.11,0.85,0.01,1.14,0.31c0.3,0.3,0.41,0.74,0.28,1.15l-55.89,188.06
				c-0.11,0.39-0.42,0.69-0.81,0.79C194.07,217.21,193.97,217.22,193.86,217.22z M52.12,83.47l141.16,130.45l54.75-184.25
				L52.12,83.47z"/>
		</g>
	</g>
</g>
<g id="FDND">
	<g class="st17">
		<path class="st18" d="M79.96,130.73H40.02l-11.66,32.1h-15l21.8-60c1-2.73,2.83-5.08,5.5-7.05c2.67-1.97,5.4-2.95,8.2-2.95h45
			l-5.09,13.9H48.84l-3.79,10.1h40L79.96,130.73z"/>
		<path class="st18" d="M137.95,152.83c-1,2.73-2.83,5.08-5.5,7.05c-2.67,1.97-5.37,2.95-8.1,2.95h-50l25.5-70h50
			c2.13,0,3.83,0.62,5.1,1.85c1.27,1.23,1.9,2.82,1.9,4.75c0,1.07-0.23,2.2-0.7,3.4L137.95,152.83z M124.47,148.93l15.36-42.2
			h-30.04l-15.37,42.2H124.47z"/>
		<path class="st18" d="M200.35,162.83h-15l-14.7-41.99l-15.3,41.99h-15.01l25.5-70h15.02l14.69,41.96l15.29-41.96h15.01
			L200.35,162.83z"/>
		<path class="st18" d="M269.95,152.83c-1,2.73-2.83,5.08-5.5,7.05c-2.67,1.97-5.37,2.95-8.1,2.95h-50l25.5-70h50
			c2.13,0,3.83,0.62,5.1,1.85c1.27,1.23,1.9,2.82,1.9,4.75c0,1.07-0.23,2.2-0.7,3.4L269.95,152.83z M256.47,148.93l15.36-42.2
			h-30.04l-15.37,42.2H256.47z"/>
	</g>
	<g class="st19">
		<path class="st20" d="M25,160.61l-2.2,6h-15l2.2-6H25z M27.9,152.61l-2.2,6h-15l2.2-6H27.9z M30.8,144.61l-2.2,6h-15l2.2-6H30.8z
			 M33.7,136.61l-2.2,6h-15l2.2-6H33.7z M76.6,128.61l-2.2,6h-55l2.2-6H76.6z M79.5,120.61l-2.1,6h-55l2.1-6H79.5z M42.5,112.61
			l-2.2,6h-15l2.2-6H42.5z M85.4,104.61l-2.2,6h-55l1.4-4c0.27-0.67,0.6-1.33,1-2H85.4z M88.3,96.61l-2.2,6H31.9c3.2-4,7-6,11.4-6
			H88.3z"/>
		<path class="st20" d="M130.2,160.61c-3.2,4-7,6-11.4,6h-50l2.2-6H130.2z M133.9,152.61l-1.5,4c-0.2,0.67-0.5,1.33-0.9,2H71.7
			l2.2-6H133.9z M91.8,144.61l-2.2,6h-15l2.2-6H91.8z M94.7,136.61l-2.2,6h-15l2.2-6H94.7z M97.6,128.61l-2.2,6h-15l2.2-6H97.6z
			 M100.5,120.61l-2.1,6h-15l2.1-6H100.5z M103.5,112.61l-2.2,6h-15l2.2-6H103.5z M151.2,104.61c-0.13,0.67-0.33,1.33-0.6,2l-1.4,4
			h-60l2.2-6H151.2z M151.3,102.61H92.1l2.2-6h50C148.7,96.61,151.03,98.61,151.3,102.61z M136.8,144.61l-2.2,6h-15l2.2-6H136.8z
			 M139.7,136.61l-2.2,6h-15l2.2-6H139.7z M142.6,128.61l-2.2,6h-15l2.2-6H142.6z M145.5,120.61l-2.1,6h-15l2.1-6H145.5z
			 M148.5,112.61l-2.2,6h-15l2.2-6H148.5z"/>
		<path class="st20" d="M152,160.61l-2.2,6h-15l2.2-6H152z M154.9,152.61l-2.2,6h-15l2.2-6H154.9z M157.8,144.61l-2.2,6h-15l2.2-6
			H157.8z M160.7,136.61l-2.2,6h-15l2.2-6H160.7z M163.6,128.61l-2.2,6h-15l2.2-6H163.6z M185.8,126.61h-20l-0.7-2l-0.7,2h-15l2.1-6
			h32.1L185.8,126.61z M183,118.61h-30.7l2.2-6h26.4L183,118.61z M180.2,110.61h-25l2.2-6h20.7L180.2,110.61z M177.4,102.61h-19.3
			l2.2-6h15L177.4,102.61z M188.5,134.61h-20l-2-6h20L188.5,134.61z M205.7,136.61l-2.2,6h-32.1l-2.1-6h20l0.7,2l0.7-2H205.7z
			 M202.8,144.61l-2.2,6h-26.4l-2.1-6H202.8z M199.9,152.61l-2.2,6H177l-2.1-6H199.9z M197,160.61l-2.2,6h-15l-2.1-6H197z
			 M208.6,128.61l-2.2,6h-15l2.2-6H208.6z M211.5,120.61l-2.1,6h-15l2.1-6H211.5z M214.5,112.61l-2.2,6h-15l2.2-6H214.5z
			 M217.4,104.61l-2.2,6h-15l2.2-6H217.4z M220.3,96.61l-2.2,6h-15l2.2-6H220.3z"/>
		<path class="st20" d="M262.2,160.61c-3.2,4-7,6-11.4,6h-50l2.2-6H262.2z M265.9,152.61l-1.5,4c-0.2,0.67-0.5,1.33-0.9,2h-59.8
			l2.2-6H265.9z M223.8,144.61l-2.2,6h-15l2.2-6H223.8z M226.7,136.61l-2.2,6h-15l2.2-6H226.7z M229.6,128.61l-2.2,6h-15l2.2-6
			H229.6z M232.5,120.61l-2.1,6h-15l2.1-6H232.5z M235.5,112.61l-2.2,6h-15l2.2-6H235.5z M283.2,104.61c-0.13,0.67-0.33,1.33-0.6,2
			l-1.4,4h-60l2.2-6H283.2z M283.3,102.61h-59.2l2.2-6h50C280.7,96.61,283.03,98.61,283.3,102.61z M268.8,144.61l-2.2,6h-15l2.2-6
			H268.8z M271.7,136.61l-2.2,6h-15l2.2-6H271.7z M274.6,128.61l-2.2,6h-15l2.2-6H274.6z M277.5,120.61l-2.1,6h-15l2.1-6H277.5z
			 M280.5,112.61l-2.2,6h-15l2.2-6H280.5z"/>
	</g>
	<g>
		<linearGradient id="SVGID_1_" gradientUnits="userSpaceOnUse" x1="50.9507" y1="164.6077" x2="50.9507" y2="94.6077">
			<stop  offset="0" style="stop-color:#009FE3"/>
			<stop  offset="0.0312" style="stop-color:#009EE1"/>
			<stop  offset="0.1891" style="stop-color:#4A96D2"/>
			<stop  offset="0.3453" style="stop-color:#9583BD"/>
			<stop  offset="0.4958" style="stop-color:#B968A7"/>
			<stop  offset="0.6396" style="stop-color:#CE4994"/>
			<stop  offset="0.7751" style="stop-color:#DC2B88"/>
			<stop  offset="0.8988" style="stop-color:#E30080"/>
			<stop  offset="1" style="stop-color:#E6007E"/>
		</linearGradient>
		<path class="st21" d="M27.9,158.61l-2.2,6h-15l2.2-6H27.9z M30.8,150.61l-2.2,6h-15l2.2-6H30.8z M33.7,142.61l-2.2,6h-15l2.2-6
			H33.7z M36.6,134.61l-2.2,6h-15l2.2-6H36.6z M79.5,126.61l-2.2,6h-55l2.2-6H79.5z M82.4,118.61l-2.1,6h-55l2.1-6H82.4z
			 M45.4,110.61l-2.2,6h-15l2.2-6H45.4z M88.3,102.61l-2.2,6h-55l1.4-4c0.27-0.67,0.6-1.33,1-2H88.3z M91.2,94.61l-2.2,6H34.8
			c3.2-4,7-6,11.4-6H91.2z"/>
		
			<linearGradient id="SVGID_00000076587650491035099160000006911357098824013447_" gradientUnits="userSpaceOnUse" x1="112.9492" y1="164.6077" x2="112.9492" y2="94.6077">
			<stop  offset="0" style="stop-color:#009FE3"/>
			<stop  offset="0.0312" style="stop-color:#009EE1"/>
			<stop  offset="0.1891" style="stop-color:#4A96D2"/>
			<stop  offset="0.3453" style="stop-color:#9583BD"/>
			<stop  offset="0.4958" style="stop-color:#B968A7"/>
			<stop  offset="0.6396" style="stop-color:#CE4994"/>
			<stop  offset="0.7751" style="stop-color:#DC2B88"/>
			<stop  offset="0.8988" style="stop-color:#E30080"/>
			<stop  offset="1" style="stop-color:#E6007E"/>
		</linearGradient>
		<path style="fill:url(#SVGID_00000076587650491035099160000006911357098824013447_);" d="M133.1,158.61c-3.2,4-7,6-11.4,6h-50
			l2.2-6H133.1z M136.8,150.61l-1.5,4c-0.2,0.67-0.5,1.33-0.9,2H74.6l2.2-6H136.8z M94.7,142.61l-2.2,6h-15l2.2-6H94.7z
			 M97.6,134.61l-2.2,6h-15l2.2-6H97.6z M100.5,126.61l-2.2,6h-15l2.2-6H100.5z M103.4,118.61l-2.1,6h-15l2.1-6H103.4z
			 M106.4,110.61l-2.2,6h-15l2.2-6H106.4z M154.1,102.61c-0.13,0.67-0.33,1.33-0.6,2l-1.4,4h-60l2.2-6H154.1z M154.2,100.61H95
			l2.2-6h50C151.6,94.61,153.93,96.61,154.2,100.61z M139.7,142.61l-2.2,6h-15l2.2-6H139.7z M142.6,134.61l-2.2,6h-15l2.2-6H142.6z
			 M145.5,126.61l-2.2,6h-15l2.2-6H145.5z M148.4,118.61l-2.1,6h-15l2.1-6H148.4z M151.4,110.61l-2.2,6h-15l2.2-6H151.4z"/>
		
			<linearGradient id="SVGID_00000083081799268385226540000009054382692599183766_" gradientUnits="userSpaceOnUse" x1="180.4482" y1="164.6077" x2="180.4482" y2="94.6077">
			<stop  offset="0" style="stop-color:#009FE3"/>
			<stop  offset="0.0312" style="stop-color:#009EE1"/>
			<stop  offset="0.1891" style="stop-color:#4A96D2"/>
			<stop  offset="0.3453" style="stop-color:#9583BD"/>
			<stop  offset="0.4958" style="stop-color:#B968A7"/>
			<stop  offset="0.6396" style="stop-color:#CE4994"/>
			<stop  offset="0.7751" style="stop-color:#DC2B88"/>
			<stop  offset="0.8988" style="stop-color:#E30080"/>
			<stop  offset="1" style="stop-color:#E6007E"/>
		</linearGradient>
		<path style="fill:url(#SVGID_00000083081799268385226540000009054382692599183766_);" d="M154.9,158.61l-2.2,6h-15l2.2-6H154.9z
			 M157.8,150.61l-2.2,6h-15l2.2-6H157.8z M160.7,142.61l-2.2,6h-15l2.2-6H160.7z M163.6,134.61l-2.2,6h-15l2.2-6H163.6z
			 M166.5,126.61l-2.2,6h-15l2.2-6H166.5z M188.7,124.61h-20l-0.7-2l-0.7,2h-15l2.1-6h32.1L188.7,124.61z M185.9,116.61h-30.7l2.2-6
			h26.4L185.9,116.61z M183.1,108.61h-25l2.2-6H181L183.1,108.61z M180.3,100.61H161l2.2-6h15L180.3,100.61z M191.4,132.61h-20l-2-6
			h20L191.4,132.61z M208.6,134.61l-2.2,6h-32.1l-2.1-6h20l0.7,2l0.7-2H208.6z M205.7,142.61l-2.2,6h-26.4l-2.1-6H205.7z
			 M202.8,150.61l-2.2,6h-20.7l-2.1-6H202.8z M199.9,158.61l-2.2,6h-15l-2.1-6H199.9z M211.5,126.61l-2.2,6h-15l2.2-6H211.5z
			 M214.4,118.61l-2.1,6h-15l2.1-6H214.4z M217.4,110.61l-2.2,6h-15l2.2-6H217.4z M220.3,102.61l-2.2,6h-15l2.2-6H220.3z
			 M223.2,94.61l-2.2,6h-15l2.2-6H223.2z"/>
		
			<linearGradient id="SVGID_00000114763315385377254730000002900935135399784840_" gradientUnits="userSpaceOnUse" x1="244.9473" y1="164.6077" x2="244.9473" y2="94.6077">
			<stop  offset="0" style="stop-color:#009FE3"/>
			<stop  offset="0.0312" style="stop-color:#009EE1"/>
			<stop  offset="0.1891" style="stop-color:#4A96D2"/>
			<stop  offset="0.3453" style="stop-color:#9583BD"/>
			<stop  offset="0.4958" style="stop-color:#B968A7"/>
			<stop  offset="0.6396" style="stop-color:#CE4994"/>
			<stop  offset="0.7751" style="stop-color:#DC2B88"/>
			<stop  offset="0.8988" style="stop-color:#E30080"/>
			<stop  offset="1" style="stop-color:#E6007E"/>
		</linearGradient>
		<path style="fill:url(#SVGID_00000114763315385377254730000002900935135399784840_);" d="M265.1,158.61c-3.2,4-7,6-11.4,6h-50
			l2.2-6H265.1z M268.8,150.61l-1.5,4c-0.2,0.67-0.5,1.33-0.9,2h-59.8l2.2-6H268.8z M226.7,142.61l-2.2,6h-15l2.2-6H226.7z
			 M229.6,134.61l-2.2,6h-15l2.2-6H229.6z M232.5,126.61l-2.2,6h-15l2.2-6H232.5z M235.4,118.61l-2.1,6h-15l2.1-6H235.4z
			 M238.4,110.61l-2.2,6h-15l2.2-6H238.4z M286.1,102.61c-0.13,0.67-0.33,1.33-0.6,2l-1.4,4h-60l2.2-6H286.1z M286.2,100.61H227
			l2.2-6h50C283.6,94.61,285.93,96.61,286.2,100.61z M271.7,142.61l-2.2,6h-15l2.2-6H271.7z M274.6,134.61l-2.2,6h-15l2.2-6H274.6z
			 M277.5,126.61l-2.2,6h-15l2.2-6H277.5z M280.4,118.61l-2.1,6h-15l2.1-6H280.4z M283.4,110.61l-2.2,6h-15l2.2-6H283.4z"/>
	</g>
	<g class="st25">
		<path class="st20" d="M17.2,165.61l-2.2,6H0l2.2-6H17.2z M20.1,157.61l-2.2,6h-15l2.2-6H20.1z M23,149.61l-2.2,6h-15l2.2-6H23z
			 M25.9,141.61l-2.2,6h-15l2.2-6H25.9z M68.8,133.61l-2.2,6h-55l2.2-6H68.8z M71.7,125.61l-2.1,6h-55l2.1-6H71.7z M34.7,117.61
			l-2.2,6h-15l2.2-6H34.7z M77.6,109.61l-2.2,6h-55l1.4-4c0.27-0.67,0.6-1.33,1-2H77.6z M80.5,101.61l-2.2,6H24.1c3.2-4,7-6,11.4-6
			H80.5z"/>
		<path class="st20" d="M122.4,165.61c-3.2,4-7,6-11.4,6H61l2.2-6H122.4z M126.1,157.61l-1.5,4c-0.2,0.67-0.5,1.33-0.9,2H63.9l2.2-6
			H126.1z M84,149.61l-2.2,6h-15l2.2-6H84z M86.9,141.61l-2.2,6h-15l2.2-6H86.9z M89.8,133.61l-2.2,6h-15l2.2-6H89.8z M92.7,125.61
			l-2.1,6h-15l2.1-6H92.7z M95.7,117.61l-2.2,6h-15l2.2-6H95.7z M143.4,109.61c-0.13,0.67-0.33,1.33-0.6,2l-1.4,4h-60l2.2-6H143.4z
			 M143.5,107.61H84.3l2.2-6h50C140.9,101.61,143.23,103.61,143.5,107.61z M129,149.61l-2.2,6h-15l2.2-6H129z M131.9,141.61l-2.2,6
			h-15l2.2-6H131.9z M134.8,133.61l-2.2,6h-15l2.2-6H134.8z M137.7,125.61l-2.1,6h-15l2.1-6H137.7z M140.7,117.61l-2.2,6h-15l2.2-6
			H140.7z"/>
		<path class="st20" d="M144.2,165.61l-2.2,6h-15l2.2-6H144.2z M147.1,157.61l-2.2,6h-15l2.2-6H147.1z M150,149.61l-2.2,6h-15l2.2-6
			H150z M152.9,141.61l-2.2,6h-15l2.2-6H152.9z M155.8,133.61l-2.2,6h-15l2.2-6H155.8z M178,131.61h-20l-0.7-2l-0.7,2h-15l2.1-6
			h32.1L178,131.61z M175.2,123.61h-30.7l2.2-6h26.4L175.2,123.61z M172.4,115.61h-25l2.2-6h20.7L172.4,115.61z M169.6,107.61h-19.3
			l2.2-6h15L169.6,107.61z M180.7,139.61h-20l-2-6h20L180.7,139.61z M197.9,141.61l-2.2,6h-32.1l-2.1-6h20l0.7,2l0.7-2H197.9z
			 M195,149.61l-2.2,6h-26.4l-2.1-6H195z M192.1,157.61l-2.2,6h-20.7l-2.1-6H192.1z M189.2,165.61l-2.2,6h-15l-2.1-6H189.2z
			 M200.8,133.61l-2.2,6h-15l2.2-6H200.8z M203.7,125.61l-2.1,6h-15l2.1-6H203.7z M206.7,117.61l-2.2,6h-15l2.2-6H206.7z
			 M209.6,109.61l-2.2,6h-15l2.2-6H209.6z M212.5,101.61l-2.2,6h-15l2.2-6H212.5z"/>
		<path class="st20" d="M254.4,165.61c-3.2,4-7,6-11.4,6h-50l2.2-6H254.4z M258.1,157.61l-1.5,4c-0.2,0.67-0.5,1.33-0.9,2h-59.8
			l2.2-6H258.1z M216,149.61l-2.2,6h-15l2.2-6H216z M218.9,141.61l-2.2,6h-15l2.2-6H218.9z M221.8,133.61l-2.2,6h-15l2.2-6H221.8z
			 M224.7,125.61l-2.1,6h-15l2.1-6H224.7z M227.7,117.61l-2.2,6h-15l2.2-6H227.7z M275.4,109.61c-0.13,0.67-0.33,1.33-0.6,2l-1.4,4
			h-60l2.2-6H275.4z M275.5,107.61h-59.2l2.2-6h50C272.9,101.61,275.23,103.61,275.5,107.61z M261,149.61l-2.2,6h-15l2.2-6H261z
			 M263.9,141.61l-2.2,6h-15l2.2-6H263.9z M266.8,133.61l-2.2,6h-15l2.2-6H266.8z M269.7,125.61l-2.1,6h-15l2.1-6H269.7z
			 M272.7,117.61l-2.2,6h-15l2.2-6H272.7z"/>
	</g>
	<g class="st25">
		<path class="st20" d="M19.05,167.61l-2.2,6h-15l2.2-6H19.05z M21.95,159.61l-2.2,6h-15l2.2-6H21.95z M24.85,151.61l-2.2,6h-15
			l2.2-6H24.85z M27.75,143.61l-2.2,6h-15l2.2-6H27.75z M70.65,135.61l-2.2,6h-55l2.2-6H70.65z M73.55,127.61l-2.1,6h-55l2.1-6
			H73.55z M36.55,119.61l-2.2,6h-15l2.2-6H36.55z M79.45,111.61l-2.2,6h-55l1.4-4c0.27-0.67,0.6-1.33,1-2H79.45z M82.35,103.61
			l-2.2,6h-54.2c3.2-4,7-6,11.4-6H82.35z"/>
		<path class="st20" d="M124.25,167.61c-3.2,4-7,6-11.4,6h-50l2.2-6H124.25z M127.95,159.61l-1.5,4c-0.2,0.67-0.5,1.33-0.9,2h-59.8
			l2.2-6H127.95z M85.85,151.61l-2.2,6h-15l2.2-6H85.85z M88.75,143.61l-2.2,6h-15l2.2-6H88.75z M91.65,135.61l-2.2,6h-15l2.2-6
			H91.65z M94.55,127.61l-2.1,6h-15l2.1-6H94.55z M97.55,119.61l-2.2,6h-15l2.2-6H97.55z M145.25,111.61c-0.13,0.67-0.33,1.33-0.6,2
			l-1.4,4h-60l2.2-6H145.25z M145.35,109.61h-59.2l2.2-6h50C142.75,103.61,145.08,105.61,145.35,109.61z M130.85,151.61l-2.2,6h-15
			l2.2-6H130.85z M133.75,143.61l-2.2,6h-15l2.2-6H133.75z M136.65,135.61l-2.2,6h-15l2.2-6H136.65z M139.55,127.61l-2.1,6h-15
			l2.1-6H139.55z M142.55,119.61l-2.2,6h-15l2.2-6H142.55z"/>
		<path class="st20" d="M146.05,167.61l-2.2,6h-15l2.2-6H146.05z M148.95,159.61l-2.2,6h-15l2.2-6H148.95z M151.85,151.61l-2.2,6
			h-15l2.2-6H151.85z M154.75,143.61l-2.2,6h-15l2.2-6H154.75z M157.65,135.61l-2.2,6h-15l2.2-6H157.65z M179.85,133.61h-20l-0.7-2
			l-0.7,2h-15l2.1-6h32.1L179.85,133.61z M177.05,125.61h-30.7l2.2-6h26.4L177.05,125.61z M174.25,117.61h-25l2.2-6h20.7
			L174.25,117.61z M171.45,109.61h-19.3l2.2-6h15L171.45,109.61z M182.55,141.61h-20l-2-6h20L182.55,141.61z M199.75,143.61l-2.2,6
			h-32.1l-2.1-6h20l0.7,2l0.7-2H199.75z M196.85,151.61l-2.2,6h-26.4l-2.1-6H196.85z M193.95,159.61l-2.2,6h-20.7l-2.1-6H193.95z
			 M191.05,167.61l-2.2,6h-15l-2.1-6H191.05z M202.65,135.61l-2.2,6h-15l2.2-6H202.65z M205.55,127.61l-2.1,6h-15l2.1-6H205.55z
			 M208.55,119.61l-2.2,6h-15l2.2-6H208.55z M211.45,111.61l-2.2,6h-15l2.2-6H211.45z M214.35,103.61l-2.2,6h-15l2.2-6H214.35z"/>
		<path class="st20" d="M256.25,167.61c-3.2,4-7,6-11.4,6h-50l2.2-6H256.25z M259.95,159.61l-1.5,4c-0.2,0.67-0.5,1.33-0.9,2h-59.8
			l2.2-6H259.95z M217.85,151.61l-2.2,6h-15l2.2-6H217.85z M220.75,143.61l-2.2,6h-15l2.2-6H220.75z M223.65,135.61l-2.2,6h-15
			l2.2-6H223.65z M226.55,127.61l-2.1,6h-15l2.1-6H226.55z M229.55,119.61l-2.2,6h-15l2.2-6H229.55z M277.25,111.61
			c-0.13,0.67-0.33,1.33-0.6,2l-1.4,4h-60l2.2-6H277.25z M277.35,109.61h-59.2l2.2-6h50C274.75,103.61,277.08,105.61,277.35,109.61z
			 M262.85,151.61l-2.2,6h-15l2.2-6H262.85z M265.75,143.61l-2.2,6h-15l2.2-6H265.75z M268.65,135.61l-2.2,6h-15l2.2-6H268.65z
			 M271.55,127.61l-2.1,6h-15l2.1-6H271.55z M274.55,119.61l-2.2,6h-15l2.2-6H274.55z"/>
	</g>
</g>
<g id="Japanese">
	<g>
		<g>
			<path class="st2" d="M24.65,181.2c-0.06,0.1-0.13,0.17-0.25,0.21c-1.51,7.27-5.27,11.58-11.54,13.79
				c-0.21-0.33-0.63-0.84-0.88-1.11c5.94-1.94,9.59-6.21,10.74-12.02H10.17v-1.28h13.04l0.27-0.17L24.65,181.2z"/>
			<path class="st2" d="M42.19,181.38v12.66h-1.38v-1.21H30.24v1.25H28.9v-12.7H42.19z M40.81,191.54v-8.88H30.24v8.88H40.81z"/>
			<path class="st2" d="M46.77,180.3c1.99,0.63,4.3,1.63,5.71,2.61l-0.73,1.21c-1.38-0.98-3.64-1.99-5.6-2.67L46.77,180.3z
				 M46.7,193.59c6.81-2.11,11.33-5.93,13.63-11.24c0.4,0.33,0.84,0.58,1.25,0.79c-2.4,5.25-7.08,9.34-13.58,11.51
				c-0.02,0.17-0.13,0.36-0.27,0.44L46.7,193.59z"/>
			<path class="st2" d="M74.91,188.95c-1.96-1.05-4.64-2.3-6.73-3.13v9.59h-1.44v-16.66l1.94,0.12c-0.02,0.21-0.17,0.35-0.5,0.4v5.6
				l0.29-0.4c2.24,0.82,5.22,2.15,7.21,3.2L74.91,188.95z"/>
			<path class="st2" d="M80.58,181.51H93.7v1.3h-5.91v9.3h7.29v1.3H79.24v-1.3h7.17v-9.3h-5.83V181.51z"/>
			<path class="st2" d="M98.55,180.3c1.99,0.63,4.3,1.63,5.71,2.61l-0.73,1.21c-1.38-0.98-3.64-1.99-5.6-2.67L98.55,180.3z
				 M98.47,193.59c6.81-2.11,11.33-5.93,13.63-11.24c0.4,0.33,0.84,0.58,1.25,0.79c-2.4,5.25-7.08,9.34-13.58,11.51
				c-0.02,0.17-0.13,0.36-0.27,0.44L98.47,193.59z"/>
			<path class="st2" d="M127.06,188.97c-1.96-1.05-4.64-2.3-6.73-3.13v9.57h-1.44v-16.66l1.94,0.12c-0.02,0.21-0.17,0.35-0.5,0.4
				v5.64l0.29-0.42c2.24,0.82,5.22,2.15,7.21,3.2L127.06,188.97z M125.05,179.94c0.88,0.73,2.03,1.94,2.65,2.82l-0.73,0.59
				c-0.58-0.82-1.75-2.11-2.61-2.8L125.05,179.94z M127.62,178.29c0.9,0.75,2.05,1.96,2.63,2.8l-0.69,0.59
				c-0.59-0.82-1.76-2.09-2.63-2.8L127.62,178.29z"/>
		</g>
		<g class="st26">
			<path class="st2" d="M23.66,182.02c-0.06,0.1-0.13,0.17-0.25,0.21c-1.51,7.27-5.27,11.58-11.54,13.79
				c-0.21-0.33-0.63-0.84-0.88-1.11c5.94-1.94,9.59-6.21,10.74-12.02H9.19v-1.28h13.04l0.27-0.17L23.66,182.02z"/>
			<path class="st2" d="M41.21,182.19v12.66h-1.38v-1.21H29.26v1.25h-1.34v-12.7H41.21z M39.83,192.36v-8.88H29.26v8.88H39.83z"/>
			<path class="st2" d="M45.79,181.12c1.99,0.63,4.3,1.63,5.71,2.61l-0.73,1.21c-1.38-0.98-3.64-1.99-5.6-2.67L45.79,181.12z
				 M45.72,194.41c6.81-2.11,11.33-5.93,13.63-11.24c0.4,0.33,0.84,0.58,1.25,0.79c-2.4,5.25-7.08,9.34-13.58,11.51
				c-0.02,0.17-0.13,0.36-0.27,0.44L45.72,194.41z"/>
			<path class="st2" d="M73.92,189.77c-1.96-1.05-4.64-2.3-6.73-3.13v9.59h-1.44v-16.66l1.94,0.12c-0.02,0.21-0.17,0.35-0.5,0.4v5.6
				l0.29-0.4c2.24,0.82,5.22,2.15,7.21,3.2L73.92,189.77z"/>
			<path class="st2" d="M79.6,182.33h13.12v1.3h-5.91v9.3h7.29v1.3H78.26v-1.3h7.17v-9.3H79.6V182.33z"/>
			<path class="st2" d="M97.57,181.12c1.99,0.63,4.3,1.63,5.71,2.61l-0.73,1.21c-1.38-0.98-3.64-1.99-5.6-2.67L97.57,181.12z
				 M97.49,194.41c6.81-2.11,11.33-5.93,13.63-11.24c0.4,0.33,0.84,0.58,1.25,0.79c-2.4,5.25-7.08,9.34-13.58,11.51
				c-0.02,0.17-0.13,0.36-0.27,0.44L97.49,194.41z"/>
			<path class="st2" d="M126.08,189.79c-1.96-1.05-4.64-2.3-6.73-3.13v9.57h-1.44v-16.66l1.94,0.12c-0.02,0.21-0.17,0.35-0.5,0.4
				v5.64l0.29-0.42c2.24,0.82,5.22,2.15,7.21,3.2L126.08,189.79z M124.07,180.75c0.88,0.73,2.03,1.94,2.65,2.82l-0.73,0.59
				c-0.58-0.82-1.75-2.11-2.61-2.8L124.07,180.75z M126.64,179.11c0.9,0.75,2.05,1.96,2.63,2.8l-0.69,0.59
				c-0.59-0.82-1.76-2.09-2.63-2.8L126.64,179.11z"/>
		</g>
		<g class="st27">
			<path class="st2" d="M25.54,180.37c-0.06,0.1-0.13,0.17-0.25,0.21c-1.51,7.27-5.27,11.58-11.54,13.79
				c-0.21-0.33-0.63-0.84-0.88-1.11c5.94-1.94,9.59-6.21,10.74-12.02H11.06v-1.28H24.1l0.27-0.17L25.54,180.37z"/>
			<path class="st2" d="M43.08,180.54v12.66H41.7v-1.21H31.14v1.25h-1.34v-12.7H43.08z M41.7,190.71v-8.88H31.14v8.88H41.7z"/>
			<path class="st2" d="M47.66,179.47c1.99,0.63,4.3,1.63,5.71,2.61l-0.73,1.21c-1.38-0.98-3.64-1.99-5.6-2.67L47.66,179.47z
				 M47.59,192.76c6.81-2.11,11.33-5.93,13.63-11.24c0.4,0.33,0.84,0.58,1.25,0.79c-2.4,5.25-7.08,9.34-13.58,11.51
				c-0.02,0.17-0.13,0.36-0.27,0.44L47.59,192.76z"/>
			<path class="st2" d="M75.8,188.12c-1.96-1.05-4.64-2.3-6.73-3.13v9.59h-1.44v-16.66l1.94,0.12c-0.02,0.21-0.17,0.35-0.5,0.4v5.6
				l0.29-0.4c2.24,0.82,5.22,2.15,7.21,3.2L75.8,188.12z"/>
			<path class="st2" d="M81.47,180.68h13.12v1.3h-5.91v9.3h7.29v1.3H80.13v-1.3h7.17v-9.3h-5.83V180.68z"/>
			<path class="st2" d="M99.44,179.47c1.99,0.63,4.3,1.63,5.71,2.61l-0.73,1.21c-1.38-0.98-3.64-1.99-5.6-2.67L99.44,179.47z
				 M99.36,192.76c6.81-2.11,11.33-5.93,13.63-11.24c0.4,0.33,0.84,0.58,1.25,0.79c-2.4,5.25-7.08,9.34-13.58,11.51
				c-0.02,0.17-0.13,0.36-0.27,0.44L99.36,192.76z"/>
			<path class="st2" d="M127.96,188.14c-1.96-1.05-4.64-2.3-6.73-3.13v9.57h-1.44v-16.66l1.94,0.12c-0.02,0.21-0.17,0.35-0.5,0.4
				v5.64l0.29-0.42c2.24,0.82,5.22,2.15,7.21,3.2L127.96,188.14z M125.94,179.1c0.88,0.73,2.03,1.94,2.65,2.82l-0.73,0.59
				c-0.58-0.82-1.75-2.11-2.61-2.8L125.94,179.1z M128.51,177.46c0.9,0.75,2.05,1.96,2.63,2.8l-0.69,0.59
				c-0.59-0.82-1.76-2.09-2.63-2.8L128.51,177.46z"/>
		</g>
	</g>
</g>
</svg>
